<svg width="41" height="41" viewBox="0 0 41 41" fill="none" xmlns="http://www.w3.org/2000/svg">
<path d="M40.523 20.9599C40.523 19.6104 40.4034 18.3291 40.1984 17.082H20.8943V24.7866H31.9472C31.4518 27.3149 29.9997 29.4503 27.8472 30.9024V36.0274H34.4413C38.3022 32.457 40.523 27.1953 40.523 20.9599Z" fill="#4285F4"/>
<path d="M20.8942 40.998C26.4292 40.998 31.0588 39.153 34.4413 36.0268L27.8472 30.9018C26.0022 32.1318 23.6617 32.8835 20.8942 32.8835C15.5472 32.8835 11.0201 29.2789 9.39718 24.4102H2.59802V29.6889C5.96343 36.3856 12.8822 40.998 20.8942 40.998Z" fill="#34A853"/>
<path d="M9.39719 24.4115C8.97011 23.1815 8.74802 21.8661 8.74802 20.4994C8.74802 19.1327 8.98719 17.8173 9.39719 16.5873V11.3086H2.59803C1.1972 14.0761 0.394287 17.1852 0.394287 20.4994C0.394287 23.8136 1.1972 26.9227 2.59803 29.6902L9.39719 24.4115Z" fill="#FBBC05"/>
<path d="M20.8942 8.11457C23.918 8.11457 26.6172 9.15666 28.7526 11.1896L34.5951 5.34708C31.0588 2.03292 26.4292 0 20.8942 0C12.8822 0 5.96343 4.6125 2.59802 11.3092L9.39718 16.5879C11.0201 11.7192 15.5472 8.11457 20.8942 8.11457Z" fill="#EA4335"/>
</svg>
