<?xml version="1.0" encoding="utf-8"?>
<svg version="1.1" id="Calque_1" x="0px" y="0px" viewBox="0 0 300 200" style="enable-background:new 0 0 640 274;" xmlns="http://www.w3.org/2000/svg">
  <style type="text/css">
	.st0{fill:#F1471C;}
	.st1{fill:#13356D;}
</style>
  <g transform="matrix(0.0463, 0, 0, -0.0463, 1.786863, 163.868729)">
    <path class="st0" d="M1755,2705c-27-7-102-26-166-43c-112-30-117-30-167-16c-43,13-59,13-90,3c-58-19-114-62-183-141 c-95-111-142-232-118-309c6-19,10-50,10-70c-1-29,11-54,63-130c35-52,94-123,130-158s66-67,66-71c0-15,53-30,104-30 c79,0,157,18,182,41c34,32,63,109,94,253c15,72,33,144,39,160c13,31,2,56-40,95c-20,19-22,27-16,108c5,73,12,99,39,153 c31,60,39,67,96,95c63,30,72,41,50,63C1833,2723,1820,2722,1755,2705z"/>
    <path class="st0" d="M350,1956c-9-12-26-104-30-168c0-5-11-8-24-8c-19,0-25-7-30-32c-9-47-33-75-48-60c-17,17-49,15-76-4 c-13-9-40-52-61-96c-32-66-37-86-31-114c23-101,139-217,294-293c178-88,296-105,476-71c126,24,168,44,248,115c89,81,104,119,83,217 c-9,43-20,64-44,84c-35,29-9,28-267,8c-102-8-173,18-252,94c-64,61-148,185-181,265C380,1962,367,1976,350,1956z"/>
    <path class="st0" d="M2305,1779c-196-26-369-94-456-178c-46-44-49-51-49-97c0-29,7-61,18-78l18-29l184,2c338,4,506-52,549-181 c11-32,13-34,69-37c148-9,232,5,232,37c0,13,17,23,62,37l62,20l19,60c16,50,17,68,8,107c-26,114-103,215-208,271 C2701,1773,2475,1803,2305,1779z"/>
    <path class="st1" d="M3631,1754c-176-47-295-175-348-374c-21-80-24-306-4-395c22-101,83-215,146-273c107-98,211-128,413-119 c170,8,283,39,409,113l42,24l-56,98c-31,53-58,99-60,101c-1,2-29-10-60-27c-82-43-159-63-250-64c-155-2-254,75-270,211l-5,48l227,6 c126,4,284,7,353,7h125l-6,128c-9,195-45,304-133,401c-51,56-135,102-222,120C3859,1774,3696,1772,3631,1754z M3849,1530 c69-20,121-104,121-197v-33h-190h-190v30c0,42,36,133,63,158C3702,1534,3778,1551,3849,1530z"/>
    <path class="st1" d="M4460,1180V610h268c303,0,364,9,478,65c120,59,207,165,249,305c9,30,19,102,22,160c17,319-129,539-395,596 c-48,10-144,14-344,14h-278V1180z M4979,1523c68-22,124-71,158-141c25-51,28-70,32-173c6-198-37-302-145-355c-47-23-73-28-160-32 l-104-5v362v361h84C4894,1540,4948,1533,4979,1523z"/>
    <path class="st1" d="M5630,1180V610h153h152l-3,240l-3,240l98,1c54,1,140,0,191-1l92-2v106v106h-190h-190v115v115h215h215v110v110 h-365h-365V1180z"/>
    <path class="st0" d="M1798,942c-82-54-75-86,36-161c41-28,83-65,95-84c11-18,30-42,41-52c65-59,109-247,74-320c-16-35-16-37,2-54 c10-10,40-26,67-35c52-19,180-107,239-163c35-34,39-35,92-31c41,3,70,14,114,41c33,20,77,40,98,45c34,6,42,14,63,57 c22,46,23,54,12,113c-24,128-96,247-223,368c-95,91-174,144-302,205c-109,52-215,85-304,94C1850,971,1841,969,1798,942z"/>
    <path class="st0" d="M1200,863c-45-23-65-43-112-110c-32-45-78-98-101-117c-53-44-173-100-245-115c-121-25-266-7-328,41 c-26,21-27,21-20,3c18-47,59-234,61-278c1-39,7-53,31-76c16-15,37-42,47-60c16-31,21-33,53-28c30,5,37,3,41-13c5-17,14-20,60-20 c30,0,67-7,83-15c19-10,58-14,122-14c100,0,143,9,198,44c19,12,52,28,74,35c21,7,56,29,78,48c49,44,121,145,137,192 c46,135,23,429-38,484C1308,894,1260,894,1200,863z"/>
  </g>
</svg>