<?xml version="1.0" encoding="utf-8"?>
<svg version="1.1" id="Layer_1" x="0px" y="0px" viewBox="0 0 300 150" style="enable-background:new 0 0 329.9 111.5;" xmlns="http://www.w3.org/2000/svg">
  <style type="text/css">
	.st0{fill-rule:evenodd;clip-rule:evenodd;fill:url(#XMLID_2_);}
	.st1{fill:#009FE3;}
</style>
  <g id="XMLID_33_" transform="matrix(0.788118, 0, 0, 0.788118, 20, 25)">
    <g id="XMLID_34_">
      <g id="XMLID_35_">
        <linearGradient id="XMLID_2_" gradientUnits="userSpaceOnUse" x1="164.95" y1="251.6307" x2="164.95" y2="302.3307" gradientTransform="matrix(1 0 0 -1 0 302.3307)">
          <stop offset="0" style="stop-color:#FFFFFF;stop-opacity:0"/>
          <stop offset="0.1557" style="stop-color:#C2E8F8;stop-opacity:0.1557"/>
          <stop offset="0.3239" style="stop-color:#88D2F2;stop-opacity:0.3239"/>
          <stop offset="0.4866" style="stop-color:#57C0ED;stop-opacity:0.4866"/>
          <stop offset="0.6395" style="stop-color:#31B2E8;stop-opacity:0.6395"/>
          <stop offset="0.7804" style="stop-color:#16A7E5;stop-opacity:0.7804"/>
          <stop offset="0.905" style="stop-color:#06A1E4;stop-opacity:0.905"/>
          <stop offset="1" style="stop-color:#009FE3"/>
        </linearGradient>
        <path id="XMLID_45_" class="st0" d="M329.9,50.7C286.9,19.3,228.9,0,165,0S43,19.3,0,50.7H329.9z"/>
        <g id="XMLID_36_">
          <g id="XMLID_37_">
            <path id="XMLID_44_" class="st1" d="M140.9,59.7c-3.1,0-4.7,2.5-5.1,5.6c-0.4,3.4-2.2,15.1-2.6,18.1c-0.2,1.8-0.4,3.6-2.1,4.4 c-1.7,0.8-3.8-0.4-5.6-1.9c-1.8-1.5-28.3-24.2-28.3-24.2c-1.5-1.3-3.4-2-5.3-2c-4,0-7.9,2.5-7.9,8.6v37.8 c0,2.9,2.1,4.8,4.5,4.8c2.7,0,4.5-1.8,4.9-4.5c0,0,2.9-18,3.3-20c0.4-2.3,0.8-4.2,3-4.9c2-0.6,4,0.5,6.8,3.1 c2.8,2.5,26.7,24.1,26.7,24.1c1.8,1.6,3.2,2.2,5.7,2.2c2.3,0,6.6-1,6.6-8.1V65.1C145.7,61.6,143.6,59.7,140.9,59.7z"/>
            <path id="XMLID_43_" class="st1" d="M311.8,99.9c-20.8,4.5-44.6-0.3-44.6-15.1c0-11.2,10.3-15.7,18.5-16.4 c8.5-0.7,15.2,1.1,18.6,4.7c2.1,2.2,1.5,5.3-2.7,5.5c-3.9,0.2-11.1,0.5-17.2,0.7c-3.4,0.1-5.3,2-5.3,4.5c0,2,1.5,4.2,5.4,4.2 c5.7,0,20.1,0.1,27.2,0.1c4.7,0,7-2.6,7-8.1c0-8.6-7.8-21.7-30.6-21.7c-20.7,0-35.6,10.3-35.6,27.2c0,23.9,35.1,31.2,60.8,22.3 c2.4-0.8,4.6-2.6,3.9-5.3C316.8,100.2,314.8,99.3,311.8,99.9z"/>
            <path id="XMLID_42_" class="st1" d="M70.3,99.9c-20.8,4.5-44.6-0.3-44.6-15.1c0-11.2,10.3-15.7,18.5-16.4 c8.5-0.7,15.2,1.1,18.6,4.7c2.1,2.2,1.5,5.3-2.7,5.5c-3.9,0.2-11.2,0.5-17.2,0.7c-3.4,0.1-5.3,2-5.3,4.5c0,2,1.5,4.2,5.4,4.2 c5.7,0,20.1,0.1,27.2,0.1c4.7,0,7-2.6,7-8.1c0-8.6-7.8-21.7-30.6-21.7C25.9,58.3,11,68.6,11,85.5c0,23.9,35.1,31.2,60.8,22.3 c2.4-0.8,4.6-2.6,3.9-5.3C75.2,100.2,73.3,99.3,70.3,99.9z"/>
            <g id="XMLID_39_">
              <path id="XMLID_41_" class="st1" d="M231.6,77c0.5,13,1.7,23.8,2,27.6c0.4,4.9,3,6.3,5.5,6.3c2.4,0,5-1.3,5.4-6.2 c0.4-4.2,1.6-17.1,2.2-29.8c0-0.7-0.4-0.9-1-0.9l-13.6,2.2C231.8,76.2,231.5,76.6,231.6,77z"/>
              <path id="XMLID_40_" class="st1" d="M239.1,58.5c-6.2,0-8,4.9-8,7.9c0,0.6,0.1,2.1,0.2,4c0,0.4,0.4,0.8,0.9,0.8l14.1-2.3 c0.5-0.1,0.7-0.4,0.7-0.8c0-0.7,0.1-1.4,0.1-1.7C247.2,63.5,245.4,58.5,239.1,58.5z"/>
            </g>
            <path id="XMLID_38_" class="st1" d="M218.3,79.3c-4.7,0-19.3,0.1-28.6,0.1c-4.5,0-5.6,2.4-5.6,4.5c0,1.8,1.2,4,5.4,4.2 c6.4,0.3,14.6,0.7,18.4,0.9c5.1,0.3,5.1,2.9,3.4,5.1c-3.4,4.5-11.8,7.4-20.5,7.4c-11.4,0-23.9-6.5-23.9-16.8 c0-9.6,10.7-20.3,42.5-15.8c2.8,0.4,5.5-0.1,6.2-2.7c0.7-2.8-1.1-4.5-4.7-5.5c-7.2-1.9-13.8-2.3-20.1-2.3 c-21.4,0-38.6,10.2-38.6,26.8c0,17.7,17.1,26.3,38.4,26.3c23.8,0,35.4-13,35.4-24.4C226.2,81.5,223.3,79.3,218.3,79.3z"/>
          </g>
        </g>
      </g>
    </g>
  </g>
</svg>