<?xml version="1.0" encoding="utf-8"?>
<svg viewBox="0 0 300 200" xmlns="http://www.w3.org/2000/svg">
  <path d="M 217.591 189.913 C 220.695 189.948 223.221 187.422 223.186 184.319 L 223.186 72.826 C 223.221 69.72 220.695 67.195 217.591 67.231 L 81.596 67.231 C 78.492 67.195 75.966 69.72 76 72.826 L 76 184.402 C 75.966 187.506 78.492 190.031 81.596 190 L 217.591 189.913 Z" fill="#ffd200" fill-rule="evenodd"/>
  <path d="M 96.179 168.209 C 96.348 156.592 103.13 147.692 114.069 147.692 C 122.123 147.692 127.125 151.93 128.227 159.136 C 129.076 164.733 128.058 168.039 121.614 168.039 L 98.976 169.057 C 99.485 184.657 109.576 189.913 122.037 189.743 L 129.923 189.743 L 129.839 186.182 L 122.208 186.182 C 110.762 185.844 104.234 181.012 103.895 172.193 L 124.92 171.093 C 129.329 170.922 132.636 168.886 132.636 163.291 C 132.636 153.372 127.209 143.959 114.238 143.959 C 102.367 143.959 92.194 152.438 92.194 168.294 C 92.194 177.195 95.077 185.165 101.096 189.829 L 107.964 189.829 C 100.417 186.606 96.094 179.06 96.179 168.209"/>
  <path d="M 147.643 157.95 L 147.643 190 L 152.391 190 L 152.391 159.561 C 155.02 156.424 159.683 154.134 163.243 154.134 C 167.483 154.134 169.603 155.66 169.603 161.002 L 169.603 190 L 174.181 190 L 174.181 160.409 C 174.181 153.964 171.214 150.234 163.584 150.234 C 159.005 150.234 154.002 152.692 147.643 157.95"/>
  <path d="M 144.845 156.592 C 151.204 151.081 157.649 147.692 164.176 147.692 C 172.57 147.692 177.15 151.845 176.98 160.409 L 176.98 190 L 181.558 190 L 181.558 160.409 C 181.811 150.912 176.98 144.3 165.023 144.3 C 157.818 144.3 149 147.776 140.267 155.576 L 140.267 190 L 144.845 190 Z"/>
  <path d="M 197.158 149.641 L 200.21 148.963 L 200.21 189.913 L 204.619 189.913 L 204.534 145.57 C 204.534 144.3 203.77 143.62 202.246 144.045 L 192.749 146.674 L 192.749 190 L 197.158 190 L 197.158 149.641 Z"/>
  <path d="M 198.684 133.955 C 203.383 133.955 206.321 128.869 203.97 124.799 C 201.621 120.728 195.747 120.728 193.396 124.799 C 192.862 125.728 192.579 126.779 192.579 127.851 C 192.48 131.262 195.273 134.054 198.684 133.955"/>
  <path d="M 125.513 159.647 C 124.583 153.626 120.85 150.15 114.153 150.15 C 105.93 150.15 100.248 156.678 99.23 166.769 L 121.106 165.75 C 125.26 165.581 126.108 164.139 125.513 159.647 M 121.531 159.985 C 121.531 161.257 120.85 162.275 118.392 162.359 L 104.065 163.121 C 104.572 158.374 108.218 154.134 113.645 154.134 C 119.748 154.134 121.531 157.611 121.531 159.985"/>
  <path d="M 163.922 24.074 C 163.739 23.269 163.211 22.589 162.48 22.209 C 158.749 20.005 155.104 22.802 151.373 22.802 C 149.933 22.802 148.575 23.058 147.473 22.379 C 147.473 21.785 148.067 21.616 148.067 20.938 C 147.006 20.879 145.955 20.707 144.93 20.429 C 143.673 20.335 142.423 20.137 141.2 19.835 C 136.197 17.716 131.365 16.612 125.513 19.327 C 123.738 20.197 121.807 20.716 119.835 20.852 C 118.901 20.852 121.275 22.717 120.85 23.65 C 117.661 24.03 114.668 25.393 112.288 27.551 L 112.288 27.72 C 114.153 30.008 116.951 30.433 119.663 30.433 C 120.596 30.433 122.292 32.637 126.617 33.23 C 132.977 34.417 136.706 30.943 141.114 32.722 C 140.916 32.123 140.83 31.488 140.862 30.858 C 146.117 32.299 150.272 32.13 154.341 30.094 C 158.157 29.161 159.852 23.904 163.922 24.074" fill="#ce1141"/>
  <path d="M 108.813 25.178 L 112.966 22.887 C 113.73 23.058 113.73 23.821 114.238 24.329 C 115.34 24.074 114.831 22.463 115.51 21.7 C 116.103 21.7 116.103 22.633 116.526 23.142 C 117.545 23.142 117.29 21.446 117.799 20.683 C 118.392 19.75 120.088 20.089 119.748 18.479 L 118.224 11.526 C 118.053 10.679 117.629 10.339 117.29 10.508 C 111.78 12.288 107.37 14.409 102.199 16.189 C 101.665 16.421 101.073 16.481 100.503 16.359 L 92.024 10 C 92.533 13.73 92.957 17.122 93.295 19.327 C 93.381 19.75 93.295 19.92 93.042 19.92 C 91.177 20.073 89.532 21.202 88.717 22.887 C 87.276 25.431 85.92 27.636 83.46 28.738 C 83.932 29.667 84.756 30.369 85.75 30.688 C 86.514 31.027 87.276 30.858 88.039 31.281 C 88 31.562 87.882 31.827 87.7 32.044 C 85.664 35.604 88.209 40.438 84.308 43.065 C 86.005 43.829 88.633 43.065 89.904 41.54 L 90.158 41.709 C 89.141 44.299 88.679 47.07 88.802 49.849 C 88.897 50.334 88.836 50.84 88.633 51.29 C 88.507 51.758 88.339 52.212 88.123 52.648 C 93.042 51.799 94.993 45.44 95.331 44.423 L 95.754 44.592 C 95.754 44.592 94.059 49.17 95.586 51.206 C 95.923 51.629 96.433 52.137 97.026 52.053 C 97.619 49.764 98.893 47.051 100.927 45.525 C 102.882 45.837 104.773 46.467 106.523 47.389 C 107.54 44.762 105.251 40.947 105.251 40.947 L 105.42 40.777 L 105.675 41.117 C 106.393 41.923 107.156 42.688 107.964 43.405 C 108.896 44 111.696 44.592 113.22 43.66 C 113.813 43.32 114.662 42.642 114.746 41.965 C 109.829 42.303 109.489 36.114 107.117 33.146 L 107.37 32.893 C 108.642 33.485 109.236 35.181 110.508 35.859 C 110.508 35.859 116.951 37.216 117.29 37.301 C 117.629 37.386 117.884 36.708 117.884 36.708 C 118.259 35.444 118.374 34.117 118.224 32.806 C 117.461 32.299 117.206 33.57 116.526 33.57 C 114.936 33.222 113.375 32.74 111.864 32.13 L 108.727 25.94 C 108.642 25.261 108.813 25.178 108.813 25.178 M 106.353 21.107 C 106.371 22.145 105.526 22.992 104.487 22.972 C 103.494 22.946 102.725 22.098 102.793 21.107 C 102.725 20.116 103.494 19.267 104.487 19.242 C 105.514 19.251 106.344 20.081 106.353 21.107"/>
  <path d="M 115.595 76.81 C 113.51 76.522 111.48 75.921 109.576 75.029 C 109.576 75.029 109.065 74.777 109.065 75.2 L 109.065 78.083 C 109.065 79.185 110.084 80.542 113.73 80.286 C 113.73 80.286 114.324 81.643 111.016 83.001 C 109.744 83.509 110.253 84.357 110.253 84.357 C 110.253 84.357 110.676 85.374 113.645 86.221 C 112.626 88.256 110.168 88.426 110.591 89.613 C 110.591 89.613 110.847 90.545 112.712 91.055 C 112.118 92.749 110.423 93.344 110 94.361 C 109.576 95.38 111.016 96.227 110.931 96.311 C 108.303 98.008 106.353 100.296 106.098 101.483 C 105.261 104.212 104.581 106.985 104.065 109.793 C 103.782 110.662 103.021 111.29 102.114 111.404 C 99.57 111.487 97.705 111.404 95.417 111.404 C 95.115 111.465 94.861 111.179 94.956 110.888 C 94.964 110.862 94.978 110.834 94.993 110.809 C 97.281 106.656 102.708 103.179 101.859 98.008 C 99.401 84.186 95.331 76.133 92.957 63.923 C 92.024 59.26 91.94 54.596 93.465 50.612 C 93.805 52.477 96.179 54.259 98.044 54.259 C 98.806 51.629 100.417 47.305 101.521 47.137 C 102.793 46.966 107.031 49.17 107.031 49.17 C 108.303 48.069 108.558 46.288 108.727 44.847 C 110.18 45.538 111.823 45.717 113.389 45.355 C 116.612 44.423 117.12 43.405 118.137 42.218 C 119.41 46.288 117.545 49.086 117.12 50.526 C 117.071 50.634 117.071 50.759 117.12 50.866 C 117.12 50.951 117.29 51.037 117.545 50.866 C 118.648 50.273 119.835 49.425 120.596 48.917 C 121.714 47.795 122.762 46.606 123.733 45.355 C 125.09 47.305 124.752 50.188 123.903 52.224 C 123.903 52.224 123.479 52.901 124.497 52.817 C 126.785 52.392 128.567 47.983 130.178 47.221 C 130.178 47.221 130.347 47.137 130.347 47.221 C 130.518 49.17 130.432 52.137 131.28 53.58 C 131.28 53.58 131.449 54.003 131.703 53.58 C 132.551 52.224 133.992 48.662 135.689 48.324 C 135.604 50.612 136.197 54.003 137.13 54.173 C 138.062 54.343 138.826 51.968 139.166 51.037 C 139.673 49.933 140.267 48.917 140.862 48.917 C 141.029 50.951 141.792 54.003 143.404 54.003 C 144.167 54.003 143.997 52.561 144.167 51.545 C 144.421 49.679 145.355 49.254 145.355 49.254 C 145.672 50.789 146.548 52.147 147.814 53.072 C 148.238 53.324 148.745 53.41 148.745 52.648 C 148.745 51.037 149.085 49.595 149.762 49.086 C 149.848 49.254 150.186 49.849 150.357 50.273 C 150.826 51.252 151.956 51.727 152.984 51.376 C 153.533 51.174 153.928 50.684 154.002 50.104 C 152.909 48.619 152.157 46.909 151.797 45.101 C 151.443 42.965 152.505 40.842 154.426 39.845 C 155.868 39.081 157.818 38.911 159.09 40.014 C 159.935 40.706 160.457 41.719 160.531 42.813 C 160.561 43.752 160.073 44.632 159.259 45.101 C 158.603 45.428 157.818 45.364 157.223 44.931 C 156.631 44.508 156.207 43.66 155.698 43.405 C 155.189 44.423 155.95 45.696 156.631 46.542 C 157.504 47.6 159.022 47.85 160.192 47.137 C 164.176 44.168 163.414 41.202 165.872 35.181 C 166.461 33.793 167.169 32.461 167.992 31.195 C 168.094 31.036 168.179 30.865 168.245 30.688 C 170.286 27.635 173.731 25.817 177.404 25.855 C 183.49 25.855 188.425 30.79 188.425 36.878 C 188.451 39.765 187.321 42.542 185.288 44.592 C 185.108 44.782 184.909 44.952 184.694 45.101 C 183.846 45.779 183.676 46.459 184.102 46.796 C 185.052 47.37 185.887 48.118 186.559 49.001 C 190.459 53.665 192.155 59.09 194.275 64.518 C 194.833 65.926 195.605 67.242 196.563 68.418 C 198.004 69.882 199.938 70.758 201.991 70.875 C 202.16 70.875 200.804 72.571 201.821 73.166 C 202.584 73.674 204.959 73.419 205.635 72.995 C 205.891 75.285 202.329 76.218 202.498 77.065 C 202.668 77.743 204.365 78.336 206.399 78.083 C 205.891 79.863 204.025 79.863 203.94 80.965 C 203.855 82.067 204.959 82.575 206.484 82.238 C 205.926 83.051 205.304 83.816 204.619 84.526 C 203.78 85.343 203.543 86.598 204.025 87.663 C 204.597 89.19 205.529 90.555 206.739 91.649 C 207.623 92.246 208.445 92.926 209.197 93.683 C 205.211 95.886 206.059 99.363 205.976 101.314 C 205.806 101.907 205.382 101.907 205.382 101.907 L 197.243 103.179 C 196.563 103.264 196.056 103.008 196.818 102.161 C 198.768 99.872 201.227 97.414 202.668 94.956 C 202.443 93.969 202.009 93.045 201.397 92.243 C 198.684 88.002 196.225 84.101 193.766 79.691 C 193.529 79.357 193.159 79.14 192.749 79.1 C 186.728 77.997 179.777 76.133 175.283 73.334 C 174.944 73.25 175.029 73.589 175.029 73.589 C 175.029 74.691 174.944 77.404 175.453 78.083 C 176.893 80.202 180.793 79.185 181.387 79.1 C 181.217 80.542 180.371 81.39 178.928 82.321 C 178.774 82.44 178.705 82.642 178.761 82.83 C 178.928 83.339 180.287 83.085 181.473 82.661 C 180.879 84.95 178.761 84.865 178.928 85.713 C 179.142 86.316 179.734 86.698 180.371 86.646 C 179.183 88.256 177.404 88.511 177.404 89.698 L 177.656 95.209 C 177.657 95.301 177.629 95.391 177.573 95.462 C 177.455 95.569 177.304 95.628 177.15 95.633 L 169.179 97.498 C 168.946 97.587 168.683 97.475 168.585 97.243 C 168.416 96.989 168.67 96.566 168.67 96.566 L 173.757 88.85 C 174.011 87.155 172.825 86.051 172.061 84.696 C 170.545 82.652 168.644 80.925 166.466 79.608 C 164.855 77.574 164.685 75.2 164.345 73.927 C 164.176 73.419 163.752 73.674 163.328 74.098 C 162.17 75.22 161.223 76.541 160.531 77.997 C 160.192 78.676 160.785 79.269 161.802 79.524 C 162.674 79.754 163.596 79.693 164.43 79.354 C 164.6 80.797 162.904 81.814 161.802 82.321 C 161.802 82.321 161.462 82.49 161.633 82.661 C 162.37 83.188 163.308 83.343 164.176 83.085 C 164.176 83.085 163.922 84.526 161.886 85.713 C 160.192 86.73 162.904 86.646 163.328 86.476 C 162.989 87.493 161.462 88.765 161.039 89.698 C 160.021 91.819 160.785 94.361 160.531 96.65 C 160.361 97.159 159.937 97.328 159.344 97.414 L 150.95 97.668 C 150.441 97.668 150.526 97.073 150.78 96.735 L 156.631 89.613 C 157.055 89.02 156.631 88.596 156.462 88.341 C 153.832 85.031 151.611 81.415 149.848 77.574 C 148.575 77.743 146.627 78.336 146.286 79.524 C 146.032 80.542 148.49 80.797 149.509 80.797 C 149.509 80.797 149.678 81.814 146.627 83.001 C 145.793 83.274 145.04 83.737 144.421 84.357 C 144.421 84.357 144.251 84.526 144.506 84.78 C 145.352 85.185 146.281 85.389 147.219 85.374 C 145.948 87.069 142.386 86.984 141.624 87.663 C 141.285 88.002 142.049 88.68 144.167 88.68 C 143.149 90.122 141.285 89.868 139.758 90.375 C 139.758 90.375 139.079 90.545 139.25 90.97 C 139.842 91.986 141.2 91.733 140.775 92.243 C 140.182 92.834 138.655 93.259 137.725 93.598 C 137.331 93.69 136.977 93.895 136.706 94.192 C 136.113 94.785 136.283 95.633 135.858 96.566 C 135.245 98.237 134.389 99.81 133.314 101.229 C 133.225 101.374 133.03 101.412 132.89 101.314 L 127.296 96.821 C 126.785 96.48 127.125 95.802 127.125 95.802 C 127.634 94.7 128.82 94.446 129.839 93.852 C 131.46 92.933 132.945 91.794 134.248 90.462 C 134.388 90.281 134.503 90.081 134.585 89.868 C 135.179 85.884 136.537 82.152 137.468 78.167 C 137.639 76.979 136.368 77.234 136.368 77.234 C 133.138 77.934 129.822 78.132 126.532 77.828 C 126.108 77.743 125.938 77.997 125.599 78.845 C 125.09 79.863 124.497 80.711 125.176 81.559 C 126.278 83.001 129.583 81.898 129.499 82.067 C 128.483 84.78 125.513 84.272 124.326 85.884 C 124.326 85.884 123.903 86.391 124.242 86.814 C 124.583 87.239 125.854 87.408 127.888 86.9 C 127.33 88.035 126.359 88.913 125.176 89.359 C 123.733 89.868 122.718 89.95 122.461 90.715 C 122.292 91.309 122.802 91.733 125.176 91.478 C 124.693 92.651 123.691 93.531 122.461 93.852 C 121.525 94.08 120.782 94.792 120.512 95.717 C 119.58 97.414 119.41 99.703 118.308 101.314 C 118.308 101.314 118.137 101.483 117.713 101.229 L 112.966 96.989 C 112.866 96.888 112.78 96.774 112.712 96.65 C 112.288 96.056 113.645 95.293 114.153 94.869 C 115.425 93.852 117.461 93.005 117.713 90.97 C 118.053 88.002 116.951 86.221 116.103 83.678 C 115.584 81.744 115.439 79.731 115.679 77.743 C 115.764 76.896 115.595 76.81 115.595 76.81 M 163.243 48.746 C 163.073 48.831 163.073 49.001 163.328 49.001 C 165.023 49.001 166.89 47.983 168.416 46.796 C 170.425 45.308 172.147 43.471 173.502 41.371 C 174.664 42.418 176.176 42.994 177.742 42.981 C 182.506 42.981 185.484 37.824 183.102 33.697 C 181.997 31.783 179.953 30.602 177.742 30.602 L 177.15 30.602 C 174.351 30.773 172.486 32.299 170.705 35.689 C 169.179 38.658 167.145 44.847 163.584 48.492 C 163.498 48.492 163.414 48.577 163.243 48.746"/>
</svg>