<?xml version="1.0" encoding="utf-8"?>
<svg version="1.1" id="Layer_1" x="0px" y="0px" viewBox="0 0 300 200" style="enable-background:new 0 0 353.6 161.6;" xmlns="http://www.w3.org/2000/svg">
  <style type="text/css">
	.st0{fill:#05A8FE;}
	.st1{fill:#C1B5F6;}
	.st2{fill:#99FCE4;}
	.st3{fill:#07A8FE;}
	.st4{fill:#4177F1;}
	.st5{fill:#4F65EE;}
	.st6{fill:#348BF4;}
	.st7{fill:#338CF4;}
	.st8{fill:#2C96F6;}
	.st9{fill:#545FEE;}
	.st10{fill:#4573F0;}
	.st11{fill:#3589F4;}
	.st12{fill:#368BF4;}
	.st13{fill:#3D7EF2;}
	.st14{fill:#279CF6;}
	.st15{fill:#4A6DF0;}
	.st16{fill:#3D7DF2;}
	.st17{fill:#2D93F5;}
	.st18{fill:#279DF7;}
	.st19{fill:#2E97F6;}
	.st20{fill:#4870F0;}
	.st21{fill:#4F69EF;}
	.st22{fill:#555CED;}
	.st23{fill:#3093F5;}
	.st24{fill:#0EABFE;}
	.st25{fill:#5764EE;}
	.st26{fill:#3B64EF;}
	.st27{fill:#2A72F1;}
	.st28{fill:#1D8FF5;}
	.st29{fill:#1DAFFE;}
	.st30{fill:#4E50EB;}
	.st31{fill:#2E77F2;}
	.st32{fill:#3C5BED;}
	.st33{fill:#1F82F3;}
	.st34{fill:#1392F6;}
	.st35{fill:#3885F3;}
	.st36{fill:#3886F3;}
	.st37{fill:#99EEFC;}
	.st38{fill:#3E80F2;}
	.st39{fill:#4A6CEF;}
	.st40{fill:#407BF2;}
	.st41{fill:#06A8FE;}
	.st42{fill:#2B96F6;}
	.st43{fill:#2994F5;}
	.st44{fill:#6647EA;}
	.st45{fill:#01D3FB;}
	.st46{fill:#09C7FC;}
	.st47{fill:#5C52EB;}
	.st48{fill:#1EAEF9;}
	.st49{fill:#299BF6;}
	.st50{fill:#10BBFB;}
	.st51{fill:#5263EE;}
	.st52{fill:#1CADF9;}
	.st53{fill:#3988F3;}
	.st54{fill:#5362EE;}
	.st55{fill:#19B9FA;}
	.st56{fill:#2C94F5;}
	.st57{fill:#4970F0;}
	.st58{fill:#437AF1;}
	.st59{fill:#407FF2;}
	.st60{fill:#4A6EF0;}
	.st61{fill:#2F92F5;}
	.st62{fill:#348AF4;}
	.st63{fill:#417AF1;}
	.st64{fill:#3985F3;}
	.st65{fill:#503EE8;}
	.st66{fill:#259EF7;}
	.st67{fill:#3D7FF2;}
	.st68{fill:#4378F1;}
	.st69{fill:#328DF4;}
	.st70{fill:#3A82F3;}
	.st71{fill:#4278F1;}
	.st72{fill:#4E66EF;}
	.st73{fill:#486FF0;}
	.st74{fill:#3786F3;}
	.st75{fill:#3C7FF2;}
	.st76{fill:#4178F1;}
	.st77{fill:#496EF0;}
	.st78{fill:#4F66EF;}
	.st79{fill:#496DF0;}
	.st80{fill:#4277F1;}
	.st81{fill:#99F1F6;}
	.st82{fill:#98F7EB;}
	.st83{fill:#98F1F6;}
	.st84{fill:#9EE4FD;}
	.st85{fill:#A6DAFB;}
	.st86{fill:#ACD1FA;}
	.st87{fill:#B3C7F9;}
	.st88{fill:#BABDF7;}
	.st89{fill:#BCBBF7;}
	.st90{fill:#B1CAF9;}
	.st91{fill:#ABD3FA;}
	.st92{fill:#A4DCFC;}
	.st93{fill:#9FE3FD;}
</style>
  <g transform="matrix(0.804554, 0, 0, 0.804554, 7.947112, 34.983284)">
    <path class="st0" d="M165.7,127.3c-18-4.9-36.4-6.9-55-6.8c-18.5,0.1-36.7,2.1-55,7.9C82.5,107.9,134.9,105.6,165.7,127.3z"/>
    <path class="st1" d="M281.9,120.8c-6.8-1.3-12.6-4.7-18.1-8.7c-11.6-8.6-18.6-20.4-22.5-34.2c-0.3-0.9-0.2-1.9-0.2-2.9 c1.6-1.4,1.7-1.5,3.4,0.2c3.8,3.6,7.3,7.6,10.8,11.4c8,8.7,16.3,17.2,24.3,25.9c1.6,1.7,3,3.6,4.4,5.5c0.6,0.8,1.2,1.7,0.4,2.6 C283.8,121.5,282.8,121.3,281.9,120.8z"/>
    <path class="st2" d="M351.1,42.4c-0.2,1.7-0.9,1.4-1.8,0.5c-7.7-8.1-15.6-16-23.1-24.3c-2.8-3.1-5.7-6-8.6-9 c-2-2.1-3.7-4.5-4.9-7.1c10.8,2.8,19.4,9.1,26.6,17.4C345,26.4,349,33.9,351.1,42.4z"/>
    <path class="st3" d="M126.4,141.6c0.8,0,1.7,0,2.5,0c1.8,0.1,4.1-0.7,5,1.8c0.8,2.3-0.1,4.4-1.5,6.1c-4.8,5.9-18.4,5.9-23.4,0.1 c-3.3-3.8-2.8-9.4,1.3-12.5c5.6-4.3,11.9-3.7,18.3-2.4c1,0.2,1.9,0.8,1.6,2c-0.4,1.3-1.6,1.4-2.7,1.2c-3.3-0.6-6.6-0.6-9.9,0.3 c-2.7,0.8-4.9,2.2-4.9,5.3s2,4.7,4.7,5.6c3.5,1.2,6.8,0.9,10-1c0.7-0.4,1.5-1.1,1.1-2c-0.2-0.5-1.1-0.8-1.7-0.8 c-2.1-0.2-4.1-0.3-6.2-0.5c-0.9-0.1-1.7-0.5-1.7-1.4c-0.1-1.2,0.8-1.7,1.8-1.8C122.6,141.6,124.5,141.7,126.4,141.6L126.4,141.6z"/>
    <path class="st3" d="M71.7,144.9c-1.7,0-3.3,0-5,0c-0.9,0-1.7-0.4-1.8-1.3c-0.2-1.2,0.6-1.8,1.7-1.9c1.8-0.1,3.6-0.1,5.4-0.2 c0.9,0,1.8-0.2,2.1-1c0.2-0.9-0.6-1.5-1.4-1.8c-3.4-1.4-6.9-1.4-9.9,0.8c-3.5,2.5-2.9,7.1,1.2,9c3.6,1.7,7.5,1.8,11.4,1.1 c1.3-0.2,3-0.9,3.3,1.2c0.3,1.6-1.4,1.9-2.5,2.2c-5.1,1.4-10.2,1.5-15.1-0.5c-3.7-1.5-6.1-4.2-6.1-8.5s2.3-7.1,6-8.7 c3.9-1.7,8.1-1.7,12.2-0.6c2.1,0.5,3.7,1.8,4.9,3.6c1.1,1.7,1.8,3.6,0.9,5.5s-2.8,1.3-4.4,1.4c-1,0.1-1.9,0-2.9,0 C71.7,145,71.7,145,71.7,144.9z"/>
    <path class="st3" d="M160.4,144.9c-1.4,0-2.8,0-4.2,0c-1.1,0-2.5,0.1-2.5-1.4c-0.1-1.7,1.3-1.8,2.6-1.9c1.5,0,3-0.1,4.6-0.1 c0.8,0,1.7-0.1,1.8-1.2c0.1-0.8-0.6-1.2-1.2-1.6c-2.7-1.7-8.2-1.1-10.6,1.1c-2.9,2.8-2,7,2,8.7c3.5,1.5,7.3,1.6,11,1 c1.3-0.2,3.1-1,3.5,1c0.4,1.8-1.5,2.1-2.7,2.4c-5.2,1.4-10.5,1.5-15.4-0.9c-3.2-1.5-5.5-3.9-5.6-7.6c-0.2-3.8,1.6-6.8,4.8-8.6 c4.7-2.6,9.8-2.7,14.8-0.8c1.4,0.6,2.7,1.5,3.5,2.8c1.1,1.7,1.9,3.5,1.1,5.5c-0.9,2.3-3,1.5-4.7,1.6 C162.2,145,161.3,144.9,160.4,144.9C160.4,145,160.4,145,160.4,144.9z"/>
    <path class="st4" d="M31.3,54.1c-2.3-7.3-4.9-8.6-11.7-6.1c-6.4-2.4-11.8-6.7-17.9-9.7C1,38,0.8,37.2,0.5,36.7c0-2.2,0-4.5,0-6.7 c1.4-2.2,3-0.8,4.3-0.1c3.1,1.5,6,3.3,9,4.9c0.7,0.8-0.1,2,0.9,2.7c0.2-0.1,0.4-0.1,0.7,0c2.8,0.1,4.7,2.1,6.7,3.6 c3.3,2.5,6.8,4.5,10.7,6c4.4,1.7,8.6,4.4,12.6,7c0,1.9,0,3.9,0,5.8c-1.8,1.2-3.5,0.4-5.1-0.3C37.1,58.1,34,56.5,31.3,54.1z"/>
    <path class="st5" d="M106,58.3c-4.2,0.1-6.2-3.5-9-5.7c-7.4-5.9-14.3-12.3-21.5-18.5c-1.1-0.9,0.5-0.9,0.5-1.4 c4.9-0.8,9.2,0.7,13.2,3.3c1.1,0.7,2,2.1,3.4,0.5c2.4,5.1,7.2,7.8,11.4,11c0.6-4.5-1.3-9.2,1.1-13.4c1.5,0.8,0.8,2.2,0.8,3.3 C106.2,44.4,106.1,51.4,106,58.3z"/>
    <path class="st6" d="M179.5,69.1c4.2,0.5,7.2,3.5,10.5,5.5c5.9,3.6,11.2,7.9,17.2,11.4c1.6,0.9,3,2.1,3.2,4.1V90 c-2.6,0.5-5.2,0.5-7.7,0c-3.6-0.1-6.4-1.9-9-4.2c-6.4,1.3-10.4-2.7-14.6-6.4c0-2.5,0-5,0-7.5C179.1,70.9,178.8,70,179.5,69.1z"/>
    <path class="st3" d="M29.6,146c1.4-3.7,2.4-6.1,3.2-8.6c0.6-2.1,1.8-3.2,3.9-2.5c2.1,0.8,2.2,2.6,1.5,4.5 c-2.4,6.6-4.8,13.2-7.3,19.9c-0.7,1.8-2,2.6-3.9,2.2c-1.7-0.4-2.3-1.9-1.7-3.2c2.2-4.4-0.2-8-1.5-11.9c-0.9-2.6-2-5.2-2.8-7.8 c-0.3-1.2-2.4-2.9,0-3.6c1.9-0.6,4.5-0.9,5.5,2.1C27.3,139.6,28.3,142.2,29.6,146z"/>
    <path class="st7" d="M117.8,70c6.8,2.5,12.4,6.9,18.1,11.1c3.7,2.7,8.6,3.9,11.6,8.6c-2.4,0.1-4.4,0.2-6.5,0.3 c-3.7,0.2-6.3-2.5-9.6-4c-1,5.1,0.5,10.1-0.9,14.9c-0.2-0.1-0.3-0.3-0.5-0.4c-1.4-4.5-0.7-9-0.4-13.6c0-0.1-0.1-0.2-0.1-0.2 c-0.1,0-0.3,0.1-0.4,0.1c-4.6-1.5-9.3-3-11.6-7.9C117.6,76,117,73,117.8,70z"/>
    <path class="st3" d="M104.6,143.9c0,2.1,0,4.2,0,6.2c0,1.3-0.2,2.5-1.6,3.1c-1.3,0.5-2.4,0-3.4-0.8c-3-2.7-5.9-5.5-8.9-8.1 c-2.9-2.5-3.6-2.2-4.3,1.6c-0.3,1.9-0.6,3.8-1,5.7c-0.2,1-0.8,1.8-2,1.7s-1.6-1-1.6-2.1c0-4.7-0.2-9.4,0.1-14.1 c0.2-3.1,2.8-3.9,5.4-1.7c3,2.4,5.9,5.1,8.8,7.6c2.4,2.1,3.6,1.3,4-1.6c0.2-1.8,0.5-3.6,0.8-5.3c0.2-1,0.8-1.8,2-1.7s1.6,1,1.6,2.1 C104.6,139,104.6,141.4,104.6,143.9L104.6,143.9z"/>
    <path class="st8" d="M54.5,67.6c0.1-1.6,0.8-1.4,1.8-0.6c3,2.4,6.1,4.7,9.1,7.1c5.4,4.6,10.8,9.4,16,15.1c-2.7,0-5.3,0-8,0 C64,87.8,55.5,78.1,54.5,67.6z"/>
    <path class="st9" d="M167,49.1c0.1,2.1-0.6,2.7-2.7,1.7c-5-2.5-9.5-5.7-14-8.7c-3.9-2.6-7.7-5.2-11.6-7.8 C150.2,30.1,162.8,36.7,167,49.1z"/>
    <path class="st10" d="M45.4,54.1c-1.3,0.1-2.4-0.3-3.5-0.9c-4.3-2.3-8.6-4.6-13.1-6.6c-4.9-2.1-9-6.1-13.4-9.2 c1.5-1.7,3.5-2.8,5.7-3.4c4,0.6,6.9,3.2,10.3,5c3.6,2,7.1,4.3,10.9,6.1c1.4,0.7,2.5,1.7,3.2,3.2C45.3,50.2,45.4,52.2,45.4,54.1z"/>
    <path class="st11" d="M0.5,62.4c0-4.7,0-9.4,0-14.1c1.4-1.2,2.8-0.8,4.3-0.2c3.4,1.3,6.1,3.7,9.2,5.4c0.9,0.5,1.2,1.4,0.6,2.5 c-0.1,6.9-0.2,13.7-0.3,20.6c-2.5-1-1.5-3.3-1.6-5c-0.1-2.3-0.8-3.9-2.9-5C6.7,65.1,4.2,62.4,0.5,62.4z"/>
    <path class="st12" d="M32,83.4c-1.3-4.6-0.4-9.2-0.5-13.9c-0.1-4,0-7.9,0.1-11.9c1.9,0.5,1.6,2.1,1.5,3.4c-0.1,2.9,1.3,4.5,3.8,5.7 c2.9,1.4,6.2,2.4,8.5,5c-0.1,4.5,1.1,9.1-0.8,13.5c-2.4-0.6-4.4-2.1-6.6-3.3C33.8,79.4,33.8,79.3,32,83.4z"/>
    <path class="st9" d="M228.6,49.1c-0.1,1.7-1,1.5-2.3,1.1c-3.2-1-5.8-3-8.6-4.8c-5.8-3.8-11.1-8.3-17.5-11.2 c10.1-3.5,22,1.4,26.7,11.1C227.5,46.6,228.1,47.8,228.6,49.1z"/>
    <path class="st13" d="M14.6,56c-4.1-3.6-8.3-7.2-14.1-7.7c0-3.9,0-7.8,0-11.6c5.9,3.3,11.9,6.7,17.8,9.9c0.7,0.4,1.1,0.7,1.2,1.4 C17,50.1,15.9,53.1,14.6,56z"/>
    <path class="st14" d="M13.8,84.2C12,88.4,9.9,89.4,5,88.5c-3.4-0.6-4.7-3-4.7-6.2c0-3,0.1-6,0.2-9C0.9,72,1.4,71,3,71.6 c3.6,1.3,7.1,3,10,5.4C15.3,78.8,14.1,81.7,13.8,84.2z"/>
    <path class="st15" d="M45.3,48.3c-5.4-3.1-10.8-6.4-16.3-9.4c-2.8-1.5-5.5-2.9-8-4.9C32.3,29,44.1,35.9,45.3,48.3z"/>
    <path class="st16" d="M45.4,71.6c-4.2-1.2-7.7-3.7-11.6-5.4c-1.6-0.7-1.7-1.9-1.8-3.4c-0.1-1.8,0.5-3.6-0.5-5.3 c-0.1-1.2-0.2-2.3-0.2-3.5c5.1,0.9,8.7,5.7,14.1,5.8C45.4,63.9,45.4,67.7,45.4,71.6z"/>
    <path class="st17" d="M13.8,84.2c-0.4-2.1,1-5.2-0.8-6.2c-3.6-2.1-7.1-4.8-11.3-5.7c-0.3-0.1-0.8,0.7-1.2,1c0-3.6,0-7.2,0-10.8 c1-1.6,2.4-1.2,3.6-0.5c2.9,1.5,5.7,3.3,8.6,4.8c1.3,0.7,0.9,1.8,1,2.9c0.3,2.3-0.6,4.7,0.6,6.9C14.4,79.1,15.1,81.8,13.8,84.2z"/>
    <path class="st18" d="M192,100.9c-0.5,3.8-3.1,5.6-6.5,5.6c-3.6,0-6.3-1.7-6.8-5.7c0.9-3.5,0.1-7,0.4-10.5c1.3-1.4,2.5-0.3,3.6,0.3 c1.9,1,3.6,2.6,5.7,3.2C192.3,94.9,193.2,97.3,192,100.9z"/>
    <path class="st19" d="M192,100.9c0.3-3-0.3-4.8-3.7-5.9c-3.2-1-5.9-3.3-8.8-5c-0.7-3.3-0.7-6.7,0-10c1.7,0.1,2.9,1.3,4.4,2.1 c3.1,1.7,6,3.8,9.8,3.7c-2,1.6-0.8,3.8-1,5.7C192.2,94.6,193.3,97.8,192,100.9z"/>
    <path class="st20" d="M13.7,35c-2.8,0-4.7-1.8-7-2.9C4.8,31,3.1,29,0.5,30c0-2.8,0-5.6,0-8.3c0.3-2.4,1.4-3.2,3.8-2.3 c3,1.1,5.6,2.8,8.3,4.4c1,0.6,1.6,1.5,1.5,2.7C13.9,29.3,14.6,32.2,13.7,35z"/>
    <path class="st18" d="M130.4,100.9c-0.7,3.6-3.1,5.6-6.6,5.6c-3.6,0-6.2-1.8-6.8-5.7c0.7-2.9,0.1-5.8,0.4-8.7 c1-1.8,2.5-0.9,3.5-0.2c2.8,2,5.9,3.3,8.6,5.3c0.8,1.1,0,2.5,0.7,3.5L130.4,100.9z"/>
    <path class="st21" d="M13.7,35c0-0.7,0.1-1.4,0-2c-0.3-2.5,1.2-5.8-0.7-7.5c-2.9-2.5-6.6-4.3-10.4-5.6c-1.9-0.6-1.1,1.6-2.1,1.8 c0-0.3-0.2-0.6-0.1-0.8c1.1-2.4-2.9-6.9,2.9-7.3c7.6-0.5,10.9,1.8,11.2,7.7c0.3,5.4,0.2,10.8,0.2,16.2C13.5,36.9,13.8,35.9,13.7,35 z"/>
    <path class="st22" d="M104.5,48.3c-4.3-1.5-7.2-4.9-10.5-7.6c-1.4-1.1-1.1-2.7-1.2-4.2c0.4-1.3,1.2-2.1,2.6-2.3 c2.3,0.8,4.6,0.3,7,0.3c1.6,0,2.7,0.3,2.6,2.2C104.7,40.6,105.4,44.5,104.5,48.3z"/>
    <path class="st23" d="M32,83.4c0.4-1.8-1-4.4,0.8-5.3c1.5-0.7,3.4,1.2,4.8,2.3c2.2,1.7,5.5,1.9,7,4.7c-1.3,3.3-4.1,3.7-7.1,3.4 C34.4,88.2,32.5,86.5,32,83.4z"/>
    <path class="st24" d="M136.1,144.7c0.4-1.5-0.8-3.4,1-4.3c1.2-0.6,2.7-1,4-0.3c1.2,0.6,0.7,2,0.6,3c-0.2,2.5-0.4,5-0.6,7.5 c-0.1,1.5-0.5,2.9-2.3,2.9c-1.6,0-1.8-1.4-2-2.7C136.6,148.7,136.4,146.6,136.1,144.7z"/>
    <path class="st25" d="M239.5,59.2c0.2,0,0.4-0.1,0.6-0.2c4.8,1.1,7.7,4.4,10.1,8.4c-5,2.6-7.9,1.5-10.7-4.2 C239.5,61.9,239.5,60.6,239.5,59.2z"/>
    <path class="st26" d="M190.3,35.1c-1.6,1.4-3.4,0.7-5.1,0.7c-5.7,0.1-5.7,0-5.7,5.9c1.2,1.5,1.3,3.1,0.4,4.7 c-0.3,0.4-0.7,0.5-1.2,0.3c-0.1-1.2-0.3-2.5-0.1-3.7c0.3-2.8-1.4-7.1,0.9-8.1C182.5,33.4,186.7,33.5,190.3,35.1z"/>
    <path class="st27" d="M117.1,35c1.5,2.6,0.4,5.5,0.8,8.3c2,2.8,1.1,6.1,1.2,9.1c-0.3,3.1,0.9,6.3-1.2,9.2c0,1.1,0,2.2,0,3.3 c-0.3,0.4-0.5,0.4-0.8,0C117,55,117.1,45,117.1,35z"/>
    <path class="st28" d="M179.5,80c0,3.3,0,6.7,0,10c-0.5,3.6,0.9,7.3-0.8,10.8c0-9.7,0-19.4,0-29.1c0.3-0.4,0.5-0.4,0.8,0 C179.5,74.4,179.5,77.2,179.5,80z"/>
    <path class="st29" d="M138.4,138.4c-2,0.6-2.6-0.1-2.5-1.5c0.1-1.9,1.1-3,3.1-3c1.5,0,2.8,0.8,2.9,2.3 C142,139.1,139.3,137.8,138.4,138.4z"/>
    <path class="st30" d="M104.5,48.3c0-2.6,0-5.2,0-7.9c0-5.4,0-5.4-5.3-5.5c-1.3,0-2.8,0.5-3.9-0.8c3.3-0.5,6.7-0.4,10-0.1 c0,5.3,0,10.5,0,15.8C104.1,49.7,104.7,48.8,104.5,48.3z"/>
    <path class="st31" d="M179.5,71.6c-0.3,0-0.5,0-0.8,0c0-8.3,0-16.7,0-25c0.3,0,0.5,0,0.8,0c1.6,1.7,1.2,3.9,1.2,5.9 c-0.2,2.8,0.8,5.7-1.2,8.2c0,2.8,0,5.5,0,8.3C179.5,70,179.5,70.8,179.5,71.6z"/>
    <path class="st32" d="M168.7,67.5c-1.7-1.4-0.6-3.4-0.9-5c0.4-2.2-0.9-4.7,0.9-6.7C169.4,59.7,169.5,63.6,168.7,67.5z"/>
    <path class="st33" d="M117,65c0.3,0,0.5,0,0.8,0c0,1.7,0,3.3,0,5c0,3.3,0,6.7,0,10c0.7,1,1,2,0.3,3.1c-0.3,0.4-0.7,0.5-1.1,0.2 C117,77.2,117,71.1,117,65z"/>
    <path class="st34" d="M117,83.3c0.3,0,0.5,0,0.8,0c1.8,2.8,1.7,5.5,0,8.3c-0.4,3,0.8,6.2-0.7,9.1C116.7,94.9,116.8,89.1,117,83.3z"/>
    <path class="st35" d="M202.6,90c2.6,0,5.2,0,7.7,0C207.8,91.1,205.2,91,202.6,90z"/>
    <path class="st36" d="M54.5,54.8c-0.1,1.4,0.5,3-0.6,4.3C53.7,57.6,53.6,56.1,54.5,54.8z"/>
    <path class="st37" d="M270,24.5c0.1-0.1,0.2-0.2,0.3-0.3c5-3.3,10.1-6.2,15.7-8.3c0.1,0,0.3,0,0.4-0.1v-0.1 c-0.1-3.2-7-11.2-10.1-11.8c-0.1,0-0.2,0.1-0.3,0.2c-6.1,2.1-11.3,5.5-15.8,10C262.3,18.8,265.6,22.2,270,24.5z"/>
    <path class="st38" d="M253.5,59.2c0,1.3,0,2.7,0,4c-0.2,0.3-0.5,0.6-0.7,0.9c-4.8-1.5-8.4-4.2-10-9.2 C248.2,52.7,250.8,53.7,253.5,59.2z"/>
    <path class="st20" d="M242.8,55c2.7,3.8,6.3,6.5,10,9.2c-0.2,1.6-1.1,2.6-2.6,3.3c-3.4-2.7-6.3-6.1-10.1-8.4 C240.2,57.2,241,55.8,242.8,55z"/>
    <path class="st39" d="M106,58.3c-10.4-8-20.5-16.4-29.9-25.6c-4.1-0.2-7.7,1.2-10.8,3.8c3,4.6,6.3,8.7,11.6,10.7 c0.4-0.2,0.8-0.3,1.2-0.5c10.2,0.3,14,4.6,14.6,16.4c5.2,1.3,8.1,6.1,12.6,8.7c0.7-1.3,0.1-2.5,0.7-3.5C106,65,106,61.7,106,58.3z"/>
    <path class="st40" d="M216.1,67.5c-2.1,4.5-5.2,7.9-10.2,9.1c6.2,0.9,10.1,5.2,14.3,9.1c3.9-2.7,6.5-6.4,8.2-10.7 C224.3,72.4,220.2,69.9,216.1,67.5z"/>
    <path class="st41" d="M17.9,138.9c-1.9-3.7-5.2-4.9-9.1-4c-2.5,0.6-2.9-0.5-2.8-2.5c0-0.9-0.1-2-0.5-2.8c-0.7-1.6-2-2.3-3.7-2 c-2,0.3-1.2,1.9-1.2,3c-0.1,3,0,6.1,0,9.1c0,3.5,0,6.9,0,10.4c0,2,1,3.6,2.9,3.1c2.6-0.7,4.8,0.4,7.3,0.5c2.9,0.1,5.2-0.8,6.8-3.2 C19.7,146.7,19.9,142.8,17.9,138.9z M9.8,148.7c-2.6-0.1-3.8-2.1-3.7-4.6c0.1-2.5,1.3-4.4,4-4.3c2.7,0.1,3.7,2.1,3.7,4.7 C13.5,146.8,12.5,148.8,9.8,148.7z"/>
    <path class="st42" d="M117.8,91.6c0-2.8,0-5.5,0-8.3c0-1.1,0-2.2,0-3.3c3.8,2.4,7.5,4.9,11.6,6.7c0.7,3.6,0.7,7.2,0,10.8 C124.9,96.9,122.2,92.6,117.8,91.6z"/>
    <path class="st43" d="M129.5,97.4c0-3.6,0-7.2,0-10.8c0-0.1,0-0.3,0.1-0.4c0.2-0.5,0.7-0.5,0.7-0.1c0,4.8,0,9.7,0,14.5 C129.1,99.8,129.6,98.5,129.5,97.4z"/>
    <path class="st44" d="M291,92.5c-12.5-2-22.6-13.6-23.3-26.7c0.8-0.7-0.1-2.1,1-2.7c3,0.4,4.8,2.7,6.8,4.5 c6.4,5.9,13.1,11.6,19.3,17.6c2.5,2.5,5.9,4,8.6,7.6C298.8,92.8,294.9,93.2,291,92.5z"/>
    <path class="st45" d="M296,30.1c14-0.9,25.6,7.4,29.2,20.7c1,1.2-0.3,3,0.9,4.2v-0.1c0.4,1.2,0.9,2.8-0.2,3.4 c-1.5,0.8-2.8-0.5-4-1.5c-6.9-6-13.4-12.3-20.1-18.4c-1.7-1.6-3.6-3-5.3-4.6C295.5,32.8,294,31.6,296,30.1z"/>
    <path class="st46" d="M296,30.1c-0.9,1.3,0,2.1,0.9,2.8c9.1,7.4,17.4,15.8,26.1,23.6c0.7,0.7,1.7,1.6,2.5,1 c0.5-0.4,0.4-1.7,0.6-2.7c1,3.1,1.7,6.2-0.1,9.2c-1.5,0.5-2.3-0.6-3.2-1.4c-3.1-3.1-6.6-5.8-10-8.6c-0.4-0.5-0.6-1-0.8-1.5 c-2.1-3.9-5.2-6.6-9.3-8.3c-6.8-1.8-11.2-6.4-14.2-12.6C290.9,30.5,293.4,30,296,30.1z"/>
    <path class="st47" d="M291,92.5c3.6,0,7.2,0,11.1,0c-12-9.2-21.9-20.2-33.5-29.2c-1.3-1.6-0.8-3.3-0.5-5.1c1.5-2.1,2.6-0.2,3.6,0.6 c3.8,2.8,7.1,6.1,10.4,9.5c2.5,6,6.8,10,13.2,11.6c3.7,2.8,6.9,6.1,10.2,9.3c0.7,0.7,2,1.2,1.4,2.6C301.7,94,296.4,93.6,291,92.5z"/>
    <path class="st48" d="M312,52.5c0.3,0.3,0.5,0.6,0.8,0.8c-1.5,2.8,0.5,4,2.2,5.7c3.2,3.2,6.4,6.3,11,7.6c-3.6,1.3-7.3,0.6-11,0.4 c-0.6,0-1.1,0-1.7-0.2c-3.9-3.9-9.2-6.2-11.7-11.5c0.6-1.2,1.6-0.6,2.5-0.6c1.8-0.1,3.6-0.2,5.4-0.3 C310.8,54.3,312.1,54.3,312,52.5z"/>
    <path class="st49" d="M275.3,40.1c0.9-1.7,2.4-2.8,4-3.7c4.9,1.6,7.9,5.8,11.9,8.7c-1.9,1.4-3.8,2.8-5.7,4.2 C280.9,47.4,277.1,44.8,275.3,40.1z"/>
    <path class="st50" d="M326,66.6c-3.1,0.4-5.5-0.6-7.7-3c-2.6-2.8-5.6-5.2-8.4-7.9c0.7-1.2,3-0.4,2.9-2.4c5.2,2.7,8.7,7.3,13.2,10.8 C326,65,326,65.8,326,66.6z"/>
    <path class="st51" d="M282.1,68.2c-4.6-1.5-6.7-6.1-10.7-8.4c-1-0.6-1.9-1.5-2.8-2.3c-0.3,0.4-0.6,0.4-0.9,0c-0.1-1.7,0-3.4,0.9-5 c1.6-1.1,2.6,0.1,3.5,1c2.8,2.9,6.1,5.4,9,8.2C281.5,63.8,281.8,66,282.1,68.2z"/>
    <path class="st52" d="M291.1,45c-3.3,0.2-4.4-2.8-6.5-4.4c-1.8-1.4-3.6-2.9-5.4-4.3c0.9-1.1,2.1-1.8,3.4-2.2c0.9-0.5,2-0.8,2.8-0.2 c3.2,2.4,6.7,4.4,8.8,8c0.4,0.6,0.4,1.3,0.2,2C293.3,44.3,292.2,44.6,291.1,45z"/>
    <path class="st53" d="M275.3,40.1c2.8,3.7,6.8,6.1,10.1,9.2c-0.9,1.4-1.7,2.7-2.6,4.1c-1.1,0.9-2.1,0.4-2.9-0.4 c-2.7-2.6-5.7-5-8.1-8C272.5,42.9,273.8,41.4,275.3,40.1z"/>
    <path class="st54" d="M306.9,91.7c-3.9-3.1-6.9-7.2-11-10.1c-0.4-0.3-0.4-1.2-0.7-1.9c1.3,0,2.6,0.1,4,0.1c1-0.6,1.9-0.3,2.7,0.3 c2.8,2.3,5.6,4.7,8.3,7.2c1,0.9,1.9,2.2,0.1,3.3C309.3,91.5,308.2,91.9,306.9,91.7z"/>
    <path class="st55" d="M294.4,43.9c-2.8-4.6-6.6-8-11.7-9.8c1.7-1.4,3.7-2.3,5.9-2.5c4.3,4.6,8,10,14.2,12.6 C299.9,44.1,297.1,44,294.4,43.9z"/>
    <path class="st56" d="M304.2,54.7c-0.8,0.1-1.5,0.3-2.3,0.4c-0.5,0.7-1.5,0.6-2.6,1.3c2.1,2.3,4.4,4.3,6.4,6.6c1,1.1,2.8,2,1.7,4 c-1.2,0.2-2.4,0.1-3.6,0.1c-4.8-3.2-9.7-6.2-12-11.9C296,53.8,300.1,54.4,304.2,54.7z"/>
    <path class="st57" d="M310.2,90.7c0.1-0.5,0.5-1.3,0.3-1.5c-3.6-3.3-6.8-7.1-11.3-9.3c2-0.6,4-1.2,5.9-1.7c3.4,1.7,5.7,4.8,8.6,7.1 c1,0.8,1.6,2,0.7,3.3C313.3,89.8,311.9,90.5,310.2,90.7z"/>
    <path class="st58" d="M271.8,44.9c2.9,1,4.6,3.5,6.7,5.4c1.3,1.2,2.2,2.9,4.3,3c-0.5,1.8-1.1,3.5-1.6,5.3 c-4.3-2.8-8.5-5.8-11.1-10.3C270.3,47,270.8,45.8,271.8,44.9z"/>
    <path class="st59" d="M303.5,66.6c1.4,0,2.8,0,4.2,0c1.9-1.6,3.9-1,5.8,0c0.5,0.1,1,0.3,1.5,0.4c-6.9,0.1-13.7,0.4-20.6,0.2 c-5.3-0.1-7.3-4.5-5-9.8c1.1,0.3,1.9,1.1,2.6,1.9C295.3,62.7,298.7,65.8,303.5,66.6z"/>
    <path class="st60" d="M270.1,48.3c3.7,3.4,7.9,6.4,11.1,10.3c0,1-0.1,2-0.1,3c-3.4-0.8-5.4-3.4-7.8-5.6c-1.5-1.3-2.4-3.4-4.8-3.6 C268.7,50.9,269.1,49.5,270.1,48.3z"/>
    <path class="st61" d="M311,73.3c2.8-1.9,5.4-1.5,7.8,0.7c3,2.7,2.9,5.9,1.3,9.3c-3.7-1.8-6.4-4.7-9.1-7.8 C310.5,74.8,310.4,74,311,73.3z"/>
    <path class="st62" d="M303.5,66.6c-7.4,1.1-10.2-4.8-14.1-9.1c0.4-1.3,1.2-2,2.5-2.3C295.2,59.6,300,62.5,303.5,66.6z"/>
    <path class="st63" d="M314.5,88.5c-0.3-2.9-2.9-3.7-4.6-5.3c-1.7-1.5-3.6-3-4.7-5.1c1.1-0.8,2.2-1.6,3.4-2.5 c2.9,3.6,7.9,5.3,9.4,10.2C317.1,87.2,315.9,88,314.5,88.5z"/>
    <path class="st64" d="M317.9,85.9c-1.9-2.7-4.8-4.3-7.1-6.6c-1-1-2.3-1.9-2.3-3.6c0.5-1.1,1.3-2,2.5-2.4c0.5,2.6,2.7,4,4.5,5.4 c1.7,1.4,3.2,2.9,4.5,4.6C319.9,84.6,319,85.3,317.9,85.9z"/>
    <path class="st65" d="M267.7,57.5c0.3,0,0.6,0,0.9,0c0,1.9,0,3.9,0,5.8c0,0.9,0.1,2-0.9,2.5C267,63,267,60.2,267.7,57.5z"/>
    <path class="st46" d="M326.2,54.9c-1.6-1.1-0.7-2.8-0.9-4.2C326.1,52,326.3,53.5,326.2,54.9z"/>
    <path class="st66" d="M313.5,66.6c-1.9,0-3.9,0-5.8,0c-3.4-3.6-6.9-7.3-10.4-11.1c1.7-0.9,3.2-0.4,4.7-0.4 C305,59.7,310.5,61.9,313.5,66.6z"/>
    <path class="st67" d="M59.4,42.4c-2.2,2.4-3.7,5.1-4.1,8.4c0.7-0.2,1.1-1.7,2-1c3.7,2.7,7.8,4.9,10.6,8.7c0.9-2.2,1.7-4.4,2.6-6.6 C67.4,48,62.9,45.8,59.4,42.4z"/>
    <path class="st68" d="M70.5,51.9c2.1-2.4,4.6-4.1,7.6-5.1c-1.7-0.3-3.2-1-4.4-2.2c-2.8-2.7-5.6-5.3-8.4-8c-2.7,1.3-4.4,3.4-5.9,5.9 C61.9,47,66.4,49.2,70.5,51.9L70.5,51.9z"/>
    <path class="st36" d="M67.9,58.5c0.1-0.3,0.2-0.6,0.3-0.9c-2.4-4.2-6.8-6.1-10.7-8.5c-1.4-0.9-1.6,1-2.2,1.7 c-0.8,1-0.9,2.1-0.8,3.3c0.3,0.5,0.5,0.9,0.9,1.4c3.4,4.1,6.5,8.6,12.6,8.6C68,62.2,67.9,60.3,67.9,58.5z"/>
    <path class="st69" d="M82,75.7c-0.3,0.1-0.6,0.1-0.8,0.2c-7.8,0-11.2-5.1-13.2-11.8c0-0.1,0-0.3,0-0.4c-2.4-0.5-4.3-1.8-6.3-3.1 c-2.8-1.8-4.2-4.9-7.2-6.4c-0.2,0.2-0.2,0.4-0.1,0.6c-0.7,1.4,0,2.9-0.6,4.3c-0.3,2.9-0.6,5.8,0.6,8.5c2.7,0.3,4.2,2.6,6.1,4 c6.7,5,12.3,11.1,19.4,16.2c-2.6,0.7-4.9-0.4-6.5,1.4c6.7,1.6,12.7,0.6,17.7-4.4C89.6,80.2,85.8,77.9,82,75.7z"/>
    <path class="st70" d="M105,81.3c-5.2-3.2-8.6-8.7-14.5-11c-0.1,0-0.2,0.1-0.3,0.1c0,0.1-0.1,0.2-0.1,0.3c-2.5,2.5-5.3,4.7-8.9,5.1 l0,0c3.5,2.8,7.2,5.4,10,9c3.8,4.3,10.4,5.2,14.2,1.9C105.9,84.8,106.6,82.3,105,81.3z"/>
    <path class="st71" d="M106,68.3c-0.4,0.8-0.7,1.7-1,2.5c-2.7-3.2-6.4-5.3-9.5-8c-1.4-1.1-1.9,0-2.7,0.5l0,0c-0.9,2.5-1.7,5-2.6,7.4 l0,0c4.5,2.6,7.6,7.2,12.1,9.7c2.9,1.6,3.4,3.5,3.1,6.3C107.1,80.6,106,74.5,106,68.3z"/>
    <path class="st72" d="M168.7,55.8c0-2.4-0.4-4.7-1.7-6.7c-2,1.3-3.7,0.1-5.3-0.9c-6-3.6-11.8-7.5-17.5-11.6c-1.7-1.3-3.5-2-5.5-2.3 c-2.6,0.6-4.9,1.9-6.7,4c-0.8,0.7-2.9,1.1-0.9,2.5c3.5,2.3,6.5,5.4,10.4,6.8c1-0.1,2-0.2,3-0.2c4.1,0.9,6.9,3.5,9.2,6.8 c0.3,0.7,0.5,1.5,0.7,2.2c3.1,2.9,7.3,4.2,10.9,6.3c0.9,0.5,2.1,0.7,3-0.4C169.1,60.1,168.1,57.9,168.7,55.8z"/>
    <path class="st73" d="M133.5,51.6c3-3.1,6.7-4.4,11-4.3l0,0c-5.2-0.8-8.5-5-12.9-7.3c-1.4-0.7,0.6-1.1,0.4-1.8 c-4-5.4-9.4-4.6-14.9-3.2c0.8,2.6,0.1,5.3,0.4,7.9c4.5,4.2,9.5,7.5,15.4,9.1C133.1,51.9,133.3,51.7,133.5,51.6z"/>
    <path class="st73" d="M167.8,62.5c-5.1-2.1-10.2-4.3-14.1-8.3l0,0c2.1,5.3,1.9,10.5-0.2,15.8c0,0,0,0,0,0.1 c2.6,3.5,6.8,4.8,10.3,7.1c0.7,0.5,1.6,0.2,2.3-0.4c1.8-2.8,2.7-5.8,2.8-9.1C168.3,65.8,169.2,63.9,167.8,62.5z"/>
    <path class="st67" d="M153.4,69.9c-2.6,3.8-5.9,6.2-10.6,6.6c4,4.4,9.4,6.7,14.1,10c4.4-2,7-5.8,9-9.9 C161.1,75.6,157.9,71.6,153.4,69.9z"/>
    <path class="st74" d="M155.5,84.4c-4.1-2.4-7.9-5.2-11.8-8c-0.3,0-0.5,0.1-0.8,0.1c-4.7-0.3-8.1-2.8-10.7-6.6 c-0.6-0.7-1.2-1.5-1.6-2.2c-3.1-2.1-6.5-3.8-9.7-5.8c-1-0.6-2.2-1.4-3.3,0c-0.1,1.1,0,2.1-0.1,3.2c0,1.5,0,3,0,4.4 c1.5,2.4,4.1,3.1,6.3,4.5c7.3,4.6,14.2,9.9,22.1,14.4c-2,0.9-3.8,0.1-4.8,1.6c5.9,1.6,11.2,0.2,16-3.5 C157.2,85.3,156.2,84.9,155.5,84.4z"/>
    <path class="st75" d="M129.2,62.5c0.1-1.1,0.2-2.3,0.3-3.4c-0.6-1.1-1.6-1.9-3.1-2.5c-3-1.1-4.8-4.5-8.6-4.1c0,3.1,0,6.1,0,9.2 c5.1,2.2,9.5,5.5,14.3,8.3l0,0C130.2,67.8,129.2,65.4,129.2,62.5z"/>
    <path class="st76" d="M133.5,51.6c-1.3,0.2-2.2-0.6-3.3-1.2c-4.1-2.5-8.2-4.7-12.4-7c0,3.1,0,6.1,0,9.2c2.8,1.8,5.4,3.9,8.4,5.2 c1.5,0.7,2.5,1.5,3.2,2.6C129.6,56.9,130.2,53.7,133.5,51.6z"/>
    <path class="st77" d="M230.3,55.7c0,2.3,0,4.5,0,6.8c-5.2-3.1-9.9-6.1-15.1-8.4c1.7,4.4,2,8.8,0.8,13.3c0,0.1-0.1,0.1-0.1,0.2 c3.2,3.9,7.5,6.1,12.4,7.2C231.3,68.7,231.8,62.3,230.3,55.7z"/>
    <path class="st78" d="M230.3,55.7c0.2-2.4-0.5-4.6-1.7-6.6c-2.2,0.4-4-0.6-5.8-1.7c-5.4-3.3-10.6-7.1-15.8-10.6 c-2.1-1.4-4.1-2.5-6.7-2.6c-2.6,0.6-4.9,2-6.8,3.9c-0.4,0.8,0,1.4,0.6,1.7c3.8,2.2,6.9,5.6,10.9,7.6c0.9,0,1.8,0,2.8,0.1 c3.2,1.4,5.5,3.8,7.5,6.6c0.1,0.4,0.3,0.8,0.4,1.1c4.9,2.7,9.6,5.6,15,8.6C230.5,60.6,231,58.1,230.3,55.7z"/>
    <path class="st79" d="M196.8,49.9c3.3-2.4,7-2.8,10.9-2.4c-5.4-2.2-9.4-6.4-14.3-9.5c-1.9-0.1-1.4-2.8-3.2-3 c-1.8,0-3.5-0.1-5.3-0.1c-5.9,0-5.9,0-5.9,5.7c4.4,5,10.2,7.7,16.2,10.3C195.7,50.6,196.3,50.3,196.8,49.9z"/>
    <path class="st80" d="M196.8,49.9c-1.8,1-3.1-0.2-4.5-1c-4.3-2.5-8.1-5.6-12.9-7.3c0,1.7,0,3.3,0,5c0,1.9,0,3.9,0,5.8 c4.4,1.6,8.4,3.6,11.5,7.2C191.3,55.6,193,52.2,196.8,49.9z"/>
    <path class="st75" d="M190.8,61.2c0-0.8,0.1-1.5,0.2-2.2c-2.2-3.5-7.8-6.9-11.5-6.5c0,2.8,0,5.6,0,8.3c4.9,1.7,8.3,6.2,13.4,7.5 l0,0C190.7,66.3,190.9,63.7,190.8,61.2z"/>
    <path class="st35" d="M207.7,76c-0.6,0.2-1.2,0.4-1.8,0.6c-6.1,0.1-10.3-3-13-8.3c-0.4-0.4-0.8-0.8-1.1-1.3 c-2.9-1.5-5.4-3.6-8.3-5.1c-1.3-0.7-2.8-2.7-4.5-0.4c0,2.4,0,4.7,0,7.1c0.4,1.4,1.7,1.7,2.8,2.3c9.8,6,19.4,12.2,28.5,19.2 c3.9-0.1,7.1-1.9,9.9-4.4C217.6,80.3,213.1,77.5,207.7,76z"/>
    <path class="st81" d="M286,14.7c0.2,0.3,0,0.8,0.1,1.2c6.4-0.8,12.8-1.7,19.2-0.2l0,0c-3.6-5.6-9-9.6-13.1-14.7 c1.5-0.5,3.3,0.5,4.7-0.8c-7.3-0.6-14.2,0.9-20.8,4C279.9,7.2,283.1,10.8,286,14.7z"/>
    <path class="st82" d="M351.1,42.4c-0.8,0.1-1.3-0.3-1.8-0.9c-8-8.3-15.8-16.6-23.6-25.1c-4.3-4.7-8.7-9.2-13-13.9 c-5.1-2.2-10.4-2.7-15.9-2.4c-1.8,0.9-4.1-0.5-6.1,1.1c4.5,4.9,9.1,9.5,13.4,14.3c0.3,0.1,0.7,0.1,1,0.2 c19,4.8,29.4,17.7,34.2,35.9c0.1,0.7,0.2,1.3,0.3,2c0.9,1.2,1.9,2.3,3,3.4c3.7,3.6,8.5,6.2,9.8,11.9c0.1,0.4,0.7,0.4,1.1,0.3 c0.2-1.2,0.4-2.5,0.5-3.7C354.2,57.6,354.2,49.8,351.1,42.4z"/>
    <path class="st83" d="M350.4,62.5c-3.9-3.3-8.2-6.3-11-10.8l0,0c1.3,6.7,1,13.3,0,20l0,0c3.9,3.7,7.7,7.5,10.9,11.8 c2.1-4.5,3.3-9.2,3.3-14.2C351.8,67.3,352.8,64.6,350.4,62.5z"/>
    <path class="st37" d="M349.6,80.5c-2.4-1.9-4.1-4.5-6.3-6.6c-1.1-1.1-2.1-2.4-3.9-2.4c0,0.1,0,0.1,0,0.2 c-1.7,6.2-3.9,12.1-7.5,17.5c-0.2,0.2-0.3,0.4-0.5,0.6c1.5,4.6,5.4,7.1,9.1,9.8c0.5,0.3,1.1,0,1.5-0.3c4-4.6,6.6-9.9,8.3-15.8 C351,82.2,350.4,81.1,349.6,80.5z"/>
    <path class="st84" d="M331.9,89.1c-2.5,2.8-5,5.6-7.5,8.3c-0.2,0.1-0.4,0.3-0.5,0.4c2,4.1,5.1,7.2,8.3,10.4c0.4,0.4,1,0.3,1.5,0.1 c3-2.9,6.5-5.3,8.3-9.2C337.6,96.8,334.3,93.5,331.9,89.1z"/>
    <path class="st85" d="M324.4,97.5L324.4,97.5c-3.1,2.2-6.1,4.4-9.2,6.5c1.1,1.2,2.2,2.4,3.2,3.7c2,2.5,5.3,3.9,6.1,7.4 c3.6-1.5,6.9-3.5,9.2-6.7C329.8,105.4,327.5,101.1,324.4,97.5z"/>
    <path class="st86" d="M315.4,103.9c-0.1,0-0.1,0.1-0.2,0.1c-3.3,1.1-6.6,2.3-10,3.4c2.3,5.1,6.1,8.9,10.9,11.7 c3.2-0.5,5.9-1.9,8.3-4.1c0.8-1.1,0.4-2.2-0.4-3C321.2,109.2,318.8,106,315.4,103.9z"/>
    <path class="st87" d="M289.4,107.5L289.4,107.5c-0.7,1,0.4,1.8,1,2.4c2.4,2.8,4.7,5.8,7.2,8.6c1.9,2.2,3.9,3.7,6.8,3.9 c4.1-0.6,8.2-1,11.8-3.3c-3.6-3.9-7.2-7.9-11-11.7C299.9,108.3,294.7,108.7,289.4,107.5z"/>
    <path class="st88" d="M298.8,118.2c-2.9-3.7-6.2-7.2-9.4-10.7l0,0c-3.6-1.1-7.2-2.2-10.8-3.3l0,0c0.1,1.4,0.7,2.7,1.7,3.7 c4.4,4.5,8.8,8.8,12.8,13.7c0.5,0.6,0.7,0.7-0.1,0.9c-0.1,0-0.3,0-0.4,0.1c3.9,1.8,7.8,0.1,11.8,0 C302.1,121.6,300.4,120.2,298.8,118.2z"/>
    <path class="st89" d="M289.5,115.8c-3.4-3.8-7.6-6.9-10.2-11.4c-0.2-0.1-0.5-0.1-0.7-0.2c-15.9-9-24-22.8-25.1-40.9l0,0 c-0.4-0.1-0.7,0.1-1.1,0.4c-0.8,1.2-1.5,2.6-2.8,3.3c-3.2,1.7-5.8,0.9-8-1.9c-0.6-0.7-0.8-1.8-2.1-1.7c-0.3,4,0.3,7.9,1.6,11.8 c0.9-1.2,1.6-0.5,2.3,0.3c2.4,2.6,4.9,5.2,7.2,7.9c6.4,7.4,13.6,14,20,21.4c4,4.7,8.7,8.8,12.6,13.6c1.7,2.1,0.9,2.5-1.3,2.5 c3.4,1.6,7,1.9,10.7,1.7c1.3,0.5,2.6,0.3,1.3-1.3C292.5,119.4,291.1,117.6,289.5,115.8z"/>
    <path class="st90" d="M253.5,59.2L253.5,59.2c0.3-3.1,0.6-6.2,1-9.3l0,0c-4.3-2.9-8.1-6.3-10.9-10.9c-3.1,6.3-3.9,13.2-4.1,20.1 c0.4,0.2,0.7,0.2,1-0.1c0.9-1.3,1.5-2.9,3.2-3.6c3.3-0.8,6.3-0.5,8.3,2.7C252.4,58.9,252.9,59.5,253.5,59.2z"/>
    <path class="st91" d="M254.4,50c1.4-3.6,2.7-7.2,4.1-10.8c0,0,0,0,0-0.1c-3.5-3.2-6-7.6-10.8-9.1c-2.2,2.7-3.3,5.9-4.2,9.2 c0.3,3.9,6,9.6,10.9,11C254.4,50.1,254.4,50,254.4,50z"/>
    <path class="st92" d="M258.5,39.1c1.1-2.7,3.5-4.6,4.3-7.5l0,0c-1.8-1.1-3.1-2.7-4.3-4.3c-1.6-2-2.9-4.4-5.8-4.9 c-2.2,2.1-3.8,4.6-4.9,7.5C251.7,32.6,254,37.2,258.5,39.1z"/>
    <path class="st93" d="M258.3,28.7c1,1.5,2.2,3.1,4.4,3.3c0-0.1,0.1-0.2,0.1-0.3c2.5-2.5,5-5,7.5-7.5l0,0c-3.9-2.8-6.8-6.6-10.1-10 c-3,2.3-5.8,4.8-7.6,8.3C254.3,24.7,256.7,26.3,258.3,28.7z"/>
  </g>
</svg>