<?xml version="1.0" encoding="UTF-8"?>
<svg id="Calque_3" data-name="Calque 3" xmlns="http://www.w3.org/2000/svg" viewBox="0 0 240.94 240.94">
  <defs>
    <style>
      .cls-1 {
        stroke-linecap: round;
        stroke-linejoin: round;
      }

      .cls-1, .cls-2 {
        fill: none;
        stroke: #1d1d1b;
        stroke-width: 2px;
      }

      .cls-2 {
        stroke-miterlimit: 10;
      }

      .cls-3 {
        fill: #d0dfe6;
      }

      .cls-3, .cls-4 {
        stroke-width: 0px;
      }

      .cls-4 {
        fill: #6bb033;
      }
    </style>
  </defs>
  <line class="cls-2" x1="91.13" y1="106.59" x2="88.65" y2="109.11"/>
  <path class="cls-1" d="M56.56,49.69l21.03,174.31c.45,3.76,3.94,6.46,7.76,6l92.55-11.17c3.82-.46,6.57-3.91,6.11-7.67l-10.29-85.32-13.23-109.66c-.45-3.76-3.94-6.46-7.76-6l-3.88.47-22.78,2.75-39.74,4.79-26.14,3.15c-3.82.46-6.57,3.91-6.11,7.67l1.24,10.28.21,1.72,1.05,8.67"/>
  <line class="cls-1" x1="86.32" y1="18.2" x2="91.63" y2="24.11"/>
  <line class="cls-1" x1="126.06" y1="13.4" x2="122.95" y2="20.33"/>
  <line class="cls-1" x1="156.15" y1="30.65" x2="61.55" y2="42.07"/>
  <line class="cls-1" x1="82.19" y1="211.08" x2="176.46" y2="199.71"/>
  <ellipse class="cls-3" cx="130.87" cy="211.77" rx="3.36" ry="3.31" transform="translate(-24.42 17.2) rotate(-6.88)"/>
  <rect class="cls-3" x="107.79" y="211.03" width="6.39" height="6.29" transform="translate(-24.85 14.84) rotate(-6.88)"/>
  <polygon class="cls-3" points="153.4 205.56 154.24 212.45 147.7 209.75 153.4 205.56"/>
  <rect class="cls-1" x="137.81" y="22.01" width="10.02" height="4.82" rx="1.59" ry="1.59" transform="translate(-1.9 17.28) rotate(-6.88)"/>
  <rect class="cls-1" x="147.92" y="22.69" width=".85" height="2.32" rx=".32" ry=".32" transform="translate(-1.79 17.94) rotate(-6.88)"/>
  <rect class="cls-3" x="126.94" y="24.76" width="1.25" height="3.91" transform="translate(-2.28 15.47) rotate(-6.88)"/>
  <rect class="cls-3" x="133.28" y="20.91" width="1.25" height="6.99" transform="translate(-1.96 16.22) rotate(-6.88)"/>
  <rect class="cls-3" x="131.14" y="21.7" width="1.25" height="6.46" transform="translate(-2.04 15.96) rotate(-6.88)"/>
  <rect class="cls-3" x="129.02" y="22.91" width="1.25" height="5.51" transform="translate(-2.14 15.71) rotate(-6.88)"/>
  <rect class="cls-3" x="124.83" y="26.18" width="1.25" height="2.76" transform="translate(-2.4 15.23) rotate(-6.88)"/>
  <rect class="cls-1" x="71.3" y="21.38" width="95.29" height="198.7" rx="9.78" ry="9.78" transform="translate(-13.61 15.12) rotate(-6.88)"/>
  <polygon class="cls-2" points="88.65 109.11 119.72 127.86 145.77 102.22 151.9 140.58 92.7 147.18 88.65 109.11"/>
  <polyline class="cls-2" points="141.4 99.43 142.33 105.61 119.72 127.86 91.65 110.92 89.62 94.1 124.76 89.19"/>
  <polyline class="cls-2" points="124.76 89.19 139.55 87.11 141.4 99.43"/>
  <polyline class="cls-2" points="125.49 89.1 114.89 82.48 105.65 91.86"/>
  <line class="cls-2" x1="145.77" y1="102.22" x2="141.4" y2="99.43"/>
  <circle class="cls-3" cx="118.31" cy="109.35" r="12.59"/>
  <polygon class="cls-4" points="111.74 109.64 110.12 112.2 118.01 116.71 126.45 103.69 124 102.06 117.16 112.37 111.74 109.64"/>
  <line class="cls-2" x1="128.34" y1="119.37" x2="151.9" y2="140.58"/>
  <line class="cls-2" x1="110.35" y1="122.21" x2="92.7" y2="147.18"/>
</svg>