<?xml version="1.0" encoding="utf-8"?>
<svg version="1.1" viewBox="0 0 300 200" xmlns="http://www.w3.org/2000/svg">
  <g fill="#34005d" transform="matrix(2.035106, 0, 0, 2.035106, 34, 20)">
    <path d="M15.92,66.73A7.57,7.57,0,0,1,8.41,72C3.93,72,0,68.75,0,63.08c0-5.25,3.79-8.83,8-8.83,5.14,0,8,3.55,8,8.76a8,8,0,0,1-.07,1H3.37a5,5,0,0,0,5,5.08,4.57,4.57,0,0,0,4.7-3.37Zm-3.3-5.32A4.21,4.21,0,0,0,8,57.14a4.49,4.49,0,0,0-4.55,4.27Zm-3.3-8.79H6.57l3-5.08h4.1Z"/>
    <path d="M22.11,71.49H18.84V54.77H22v2.4a5.73,5.73,0,0,1,5.15-2.89c4,0,6,2.89,6,6.61v10.6H29.9v-10c0-2.33-1-4.21-3.9-4.21-2.57,0-3.89,2-3.89,4.59Z"/>
    <path d="M51.59,66.73A7.58,7.58,0,0,1,44.08,72c-4.49,0-8.42-3.26-8.42-8.93,0-5.25,3.79-8.83,8-8.83,5.15,0,8,3.55,8,8.76a6.57,6.57,0,0,1-.07,1H39a5,5,0,0,0,5,5.08,4.56,4.56,0,0,0,4.69-3.37Zm-3.31-5.32a4.21,4.21,0,0,0-4.59-4.27,4.5,4.5,0,0,0-4.55,4.27Z"/>
    <path d="M63.79,58.07a10.12,10.12,0,0,0-1.43-.1c-2.74,0-4.59,1.46-4.59,5.14v8.38H54.51V54.77H57.7v2.92a5.25,5.25,0,0,1,5-3.2,5.67,5.67,0,0,1,1.08.11Z"/>
    <path d="M67.86,71.67a4.45,4.45,0,0,0,4.56,4.1c3.51,0,5.11-1.81,5.11-5.42V68a5.57,5.57,0,0,1-5.11,2.74c-4.45,0-7.69-3.37-7.69-8.1,0-4.52,3.1-8.13,7.69-8.13,2.57,0,4.31,1,5.14,2.64V54.77h3.23V70.24c0,4.24-2.08,8.38-8.37,8.38-4.18,0-7.3-2.64-7.72-6.22Zm9.81-9.08c0-3.23-2-5.35-4.77-5.35s-4.83,2.12-4.83,5.35S70,68,72.9,68,77.67,65.83,77.67,62.59Z"/>
    <path d="M86.08,47.72a2.35,2.35,0,1,1-2.33,2.36A2.35,2.35,0,0,1,86.08,47.72Zm-1.6,23.77V54.77h3.24V71.49Z"/>
    <path d="M106.28,66.73A7.57,7.57,0,0,1,98.77,72c-4.48,0-8.41-3.26-8.41-8.93,0-5.25,3.79-8.83,8-8.83,5.14,0,8,3.55,8,8.76a8,8,0,0,1-.07,1H93.73a5,5,0,0,0,5,5.08,4.57,4.57,0,0,0,4.7-3.37ZM103,61.41a4.21,4.21,0,0,0-4.59-4.27,4.5,4.5,0,0,0-4.55,4.27Z"/>
    <path d="M56.65,14.62A5.41,5.41,0,0,0,61,14.34l-.34-.22a5.65,5.65,0,0,0,2-1L62.26,13s2.88-.84,5.14-6.58l-.5,0a6.26,6.26,0,0,0,1.39-2.26,8.21,8.21,0,0,0,.55-2.67c-.16-.08-.61.17-1,.32A4.66,4.66,0,0,1,66.63,2l.26-.36a11.36,11.36,0,0,0-6.72,1V2.28a9.51,9.51,0,0,0-5.5,5.91l-.27-.28s-1.58,4.86,1.31,6.29c1.9-5.71,6-8.19,6.19-8S57.52,10.6,56.65,14.62Z"/>
    <path d="M52.76,0a5.53,5.53,0,0,0-2.52,1.72,10.38,10.38,0,0,0-1.73,2.81l-.29-.23a11.33,11.33,0,0,0,.09,6.31l-.37-.09S49.35,13.45,52,14l-.21.22A2.71,2.71,0,0,0,54,13.8c-3.65-3.8-3.15-8-2.83-8s.11,4,2.25,5.6a8.3,8.3,0,0,1,.7-4.36l.29.18s.87-2.41-.4-4.12l-.32.27s-.07-1.08-.18-1.67S53,.1,52.76,0Z"/>
  </g>
  <g fill="#006350" transform="matrix(2.035106, 0, 0, 2.035106, 34, 20)">
    <path d="M32.56,17.75a13.37,13.37,0,0,0-9.56,4A13.39,13.39,0,0,0,.06,31.14V44.52H7.72V31.14a5.73,5.73,0,0,1,11.45,0h0V44.52h7.66V31.12a5.73,5.73,0,0,1,11.45,0V44.52h7.66V31.14A13.38,13.38,0,0,0,32.56,17.75Z"/>
    <path d="M78.87,17.75A13.38,13.38,0,0,0,65.49,31.14V44.52h7.66V31.14a5.73,5.73,0,1,1,11.45,0V44.52h7.66V31.14A13.38,13.38,0,0,0,78.87,17.75Z"/>
    <path d="M55.72,18h0a3.83,3.83,0,0,0-3.84,3.83V44.52h7.67V21.83A3.83,3.83,0,0,0,55.72,18Z"/>
    <path d="M109.78,18.07h-4V12.58A3.82,3.82,0,0,0,102,8.75h0a3.83,3.83,0,0,0-3.83,3.83v5.49h-.51a3.83,3.83,0,0,0-3.83,3.84h0a3.83,3.83,0,0,0,3.83,3.83h.51V44.52h7.66V25.74h4a3.84,3.84,0,0,0,3.84-3.83h0A3.84,3.84,0,0,0,109.78,18.07Z"/>
  </g>
</svg>