<?xml version="1.0" encoding="utf-8"?>
<svg version="1.1" id="Layer_1" x="0px" y="0px" viewBox="0 0 300 200" style="enable-background:new 0 0 271.5 117.4;" xmlns="http://www.w3.org/2000/svg">
  <style type="text/css">
	.st0{fill:url(#SVGID_1_);}
	.st1{fill:url(#SVGID_2_);}
	.st2{fill:url(#SVGID_3_);}
	.st3{fill:url(#SVGID_4_);}
	.st4{opacity:0.2;fill:#25929C;enable-background:new    ;}
	.st5{opacity:0.2;fill:#30AD71;enable-background:new    ;}
	.st6{fill:#002C54;}
	.st7{fill:url(#SVGID_5_);}
	.st8{fill:url(#SVGID_6_);}
	.st9{opacity:0.2;fill:#0073B8;enable-background:new    ;}
</style>
  <g transform="matrix(0.93855, 0, 0, 0.93855, 22.797735, 44.718437)">
    <g>
      <linearGradient id="SVGID_1_" gradientUnits="userSpaceOnUse" x1="19.621" y1="82.9583" x2="253.8266" y2="82.9583" gradientTransform="matrix(1 0 0 -1 0 143.8898)">
        <stop offset="0" style="stop-color:#0073B8"/>
        <stop offset="1" style="stop-color:#30AD71"/>
      </linearGradient>
      <path class="st0" d="M228.7,36.1c-2.8,0-5.1,2.3-5.1,5.1v39.4c0,2.8,2.3,5.1,5.1,5.1c2.8,0,5.1-2.3,5.1-5.1V41.2 C233.8,38.4,231.5,36.1,228.7,36.1z"/>
      <linearGradient id="SVGID_2_" gradientUnits="userSpaceOnUse" x1="19.621" y1="99.71" x2="253.8266" y2="99.71" gradientTransform="matrix(1 0 0 -1 0 143.8898)">
        <stop offset="0" style="stop-color:#0073B8"/>
        <stop offset="1" style="stop-color:#30AD71"/>
      </linearGradient>
      <path class="st1" d="M271.2,48.8l0-0.2c0-30.3-19.1-46.3-42.9-46.3c-23.4,0-42.3,15.9-42.3,45.9l0,0.3c-0.1,0.2-0.1,0.6-0.1,0.9 v31.5c0,2.8,2.3,5.1,5.1,5.1c2.8,0,5.1-2.3,5.1-5.1V49.4l-0.1-2.2c0-23,14.7-34.6,32.2-34.6c18.2,0,32.7,12.6,32.7,36.7l0,31.7 c0,2.8,2.3,5.1,5.1,5.1c2.8,0,5.1-2.3,5.1-5.1V49.4C271.2,49.2,271.2,49,271.2,48.8z"/>
    </g>
    <linearGradient id="SVGID_3_" gradientUnits="userSpaceOnUse" x1="19.621" y1="98.6507" x2="253.8266" y2="98.6507" gradientTransform="matrix(1 0 0 -1 0 143.8898)">
      <stop offset="0" style="stop-color:#0073B8"/>
      <stop offset="1" style="stop-color:#30AD71"/>
    </linearGradient>
    <path class="st2" d="M146.1,43.3h-34.9V9.1c0-2.6-2.5-5-5.1-5c-2.6,0-5,2.4-5,5v72.2c0,3.1,2,5,5,5c2.5,0,5.1-1.9,5.1-5V53.5h34.9 c2.6,0,5-2.5,5-5.1C151.1,45.7,148.7,43.3,146.1,43.3z"/>
    <linearGradient id="SVGID_4_" gradientUnits="userSpaceOnUse" x1="19.621" y1="99.1583" x2="253.8266" y2="99.1583" gradientTransform="matrix(1 0 0 -1 0 143.8898)">
      <stop offset="0" style="stop-color:#0073B8"/>
      <stop offset="1" style="stop-color:#30AD71"/>
    </linearGradient>
    <path class="st3" d="M165.5,3.1c-2.6,0-4.9,2.3-5.1,4.9v73.6c0.2,2.5,2.5,4.8,5.1,4.8c3,0,5.5-2.3,5.5-5V8.2 C171,5.5,168.4,3.1,165.5,3.1z"/>
    <path class="st4" d="M154.2,47.6c0.3,4.4-3,8.3-7.4,8.6c-4.4,0.3-8.3-3-8.6-7.4c-0.3-4.4,3-8.3,7.4-8.6 C150,39.9,153.9,43.2,154.2,47.6z"/>
    <path class="st5" d="M236.8,41.4c0,4.4-3.7,8-8.1,8c-4.4,0-8-3.7-8-8.1c0-4.4,3.7-8,8.1-8C233.3,33.3,236.8,36.9,236.8,41.4z"/>
    <g>
      <path class="st6" d="M99,101.2h11.9v2.5h-9.1v4.2h8.1v2.5h-8.1v4.3h9.2v2.5H99C99,117.3,99,101.2,99,101.2z M106.4,96.5l2.5,1.1 l-2.9,2.2h-2.2L106.4,96.5z"/>
      <path class="st6" d="M125.9,101.2h2.6l8.6,11.1v-11.1h2.8v16.1h-2.4l-8.9-11.4v11.4h-2.8L125.9,101.2L125.9,101.2z"/>
      <path class="st6" d="M155.5,101.2h11.9v2.5h-9.1v4.2h8.1v2.5h-8.1v4.3h9.2v2.5h-12L155.5,101.2L155.5,101.2z"/>
      <path class="st6" d="M182.4,101.2h7.2c2,0,3.6,0.6,4.6,1.6c0.8,0.9,1.3,2.1,1.3,3.5v0c0,2.6-1.6,4.2-3.8,4.9l4.3,6.1h-3.4l-4-5.6 h-3.5v5.6h-2.8L182.4,101.2L182.4,101.2z M189.4,109.2c2,0,3.3-1.1,3.3-2.7v0c0-1.7-1.2-2.7-3.3-2.7h-4.1v5.4H189.4z"/>
      <path class="st6" d="M209.8,109.3L209.8,109.3c0-4.6,3.5-8.4,8.3-8.4c2.8,0,4.5,0.8,6.2,2.2l-1.8,2.1c-1.2-1.1-2.5-1.7-4.5-1.7 c-3,0-5.2,2.6-5.2,5.7v0c0,3.3,2.2,5.7,5.5,5.7c1.5,0,2.9-0.5,3.9-1.2v-3h-4.1v-2.5h6.9v6.8c-1.6,1.4-3.9,2.5-6.7,2.5 C213.2,117.6,209.8,114,209.8,109.3z"/>
      <path class="st6" d="M240.3,101.2h2.8v16.1h-2.8V101.2z"/>
      <path class="st6" d="M258.9,101.2h11.9v2.5h-9.1v4.2h8.1v2.5h-8.1v4.3h9.2v2.5h-12L258.9,101.2L258.9,101.2z"/>
    </g>
    <linearGradient id="SVGID_5_" gradientUnits="userSpaceOnUse" x1="19.621" y1="99.8025" x2="253.8266" y2="99.8025" gradientTransform="matrix(1 0 0 -1 0 143.8898)">
      <stop offset="0" style="stop-color:#0073B8"/>
      <stop offset="1" style="stop-color:#30AD71"/>
    </linearGradient>
    <path class="st7" d="M46.6,87.3c-6.1,0.4-12.2-0.4-18.1-2.6c-10.9-4-19.5-12-24.3-22.5c-4.8-10.5-5.3-22.3-1.3-33.1 c4-10.9,12-19.5,22.5-24.4C36.3-0.3,48.9-0.6,60,4c2.4,1,3.6,3.8,2.6,6.2c-1,2.4-3.8,3.6-6.2,2.6c-8.7-3.6-18.5-3.4-27,0.5 c-8.2,3.8-14.4,10.5-17.5,19c-3.1,8.5-2.8,17.6,1,25.8c3.8,8.2,10.5,14.4,19,17.5c8.5,3.1,17.6,2.8,25.8-1 c8.2-3.8,14.4-10.5,17.5-19c3.1-8.5,2.8-17.6-1-25.8c-1.1-2.4-0.1-5.2,2.3-6.3c2.4-1.1,5.2-0.1,6.3,2.3c4.8,10.5,5.3,22.3,1.3,33.1 c-4,10.9-12,19.5-22.5,24.4C56.8,85.6,51.8,86.9,46.6,87.3z"/>
    <linearGradient id="SVGID_6_" gradientUnits="userSpaceOnUse" x1="16.5644" y1="33.9123" x2="250.7699" y2="33.9123" gradientTransform="matrix(1 0 0 -1 0 143.8898)">
      <stop offset="0" style="stop-color:#0073B8"/>
      <stop offset="1" style="stop-color:#30AD71"/>
    </linearGradient>
    <path class="st8" d="M69.8,115.5H15.5c-3,0-5.5-2.5-5.5-5.5l0,0c0-3,2.5-5.5,5.5-5.5h54.2c3,0,5.5,2.5,5.5,5.5l0,0 C75.2,113,72.8,115.5,69.8,115.5z"/>
    <path class="st9" d="M66.4,8.4c0,4.4-3.7,8-8.1,8c-4.4,0-8-3.7-8-8.1c0-4.4,3.7-8,8.1-8C62.9,0.3,66.5,3.9,66.4,8.4z"/>
  </g>
</svg>