<?xml version="1.0" encoding="UTF-8"?>
<svg id="Calque_3" data-name="Calque 3" xmlns="http://www.w3.org/2000/svg" viewBox="0 0 240.94 240.94">
  <defs>
    <style>
      .cls-1 {
        fill: none;
        stroke: #1d1d1b;
        stroke-linecap: round;
        stroke-miterlimit: 10;
        stroke-width: 2px;
      }

      .cls-2 {
        fill: #6bb033;
        stroke-width: 0px;
      }
    </style>
  </defs>
  <path class="cls-1" d="M54.9,158.73h16.25c1.86,0,3.36,1.51,3.36,3.36v40.32h-22.97v-40.32c0-1.86,1.51-3.36,3.36-3.36Z"/>
  <path class="cls-1" d="M96.27,130.74h16.22c1.86,0,3.38,1.51,3.38,3.38v68.29h-22.97v-68.29c0-1.86,1.51-3.38,3.38-3.38Z"/>
  <path class="cls-1" d="M136.79,138.7h16.23c1.86,0,3.37,1.51,3.37,3.37v60.34h-22.97v-60.34c0-1.86,1.51-3.37,3.37-3.37Z"/>
  <path class="cls-1" d="M176.08,101.85h16.17c1.88,0,3.4,1.52,3.4,3.4v97.17h-22.97v-97.17c0-1.88,1.52-3.4,3.4-3.4Z"/>
  <path class="cls-2" d="M39.46,194.39V45.87c0-.28-.23-.51-.51-.51h-9.88c-.28,0-.51.23-.51.51v161.68c0,.28.23.51.51.51h173.8c.28,0,.51-.23.51-.51v-12.14c0-.28-.23-.51-.51-.51H39.97c-.28,0-.51-.23-.51-.51Z"/>
  <rect class="cls-1" x="59.48" y="37.94" width="20.05" height="20.05" rx="3.43" ry="3.43"/>
  <rect class="cls-1" x="59.48" y="66.76" width="20.05" height="20.05" rx="3.42" ry="3.42"/>
  <line class="cls-1" x1="89.97" y1="43.37" x2="135.08" y2="43.37"/>
  <line class="cls-1" x1="89.97" y1="54.65" x2="135.08" y2="54.65"/>
  <line class="cls-1" x1="89.97" y1="70.52" x2="135.08" y2="70.52"/>
  <line class="cls-1" x1="89.97" y1="82.36" x2="135.08" y2="82.36"/>
  <circle class="cls-1" cx="102.71" cy="101.85" r="9.82"/>
  <circle class="cls-1" cx="144.9" cy="114.38" r="9.82"/>
  <line class="cls-1" x1="61.98" y1="134.43" x2="95.3" y2="108.28"/>
  <line class="cls-1" x1="112.53" y1="101.85" x2="135.08" y2="109.78"/>
  <line class="cls-1" x1="152.52" y1="108.19" x2="180.2" y2="80.54"/>
  <line class="cls-1" x1="168.63" y1="80.72" x2="180.49" y2="79.93"/>
  <line class="cls-1" x1="180.35" y1="80.87" x2="180.35" y2="92.75"/>
</svg>