<?xml version="1.0" encoding="utf-8"?>
<svg version="1.1" id="Layer_1" x="0px" y="0px" viewBox="0 0 300 200" style="enable-background:new 0 0 360 257.6;" xmlns="http://www.w3.org/2000/svg">
  <style type="text/css">
	.st0{fill:#FFDA00;}
	.st1{fill:#2172B6;}
</style>
  <g transform="matrix(0.737578, 0, 0, 0.737578, 18, 5)">
    <path class="st0" d="M180,0c-49.5,0-89.6,40.1-89.6,89.6h179.2C269.6,40.1,229.5,0,180,0"/>
    <path class="st1" d="M180,179.2c-49.5,0-89.6-40.1-89.6-89.6h179.2C269.6,139.1,229.5,179.2,180,179.2"/>
    <polygon points="105.2,218.4 73.3,218.4 73.3,226.8 84.7,226.8 84.7,257.6 94.9,257.6 94.9,226.8 105.2,226.8 &#9;"/>
    <polygon points="108.7,218.4 108.7,226.8 119,226.8 119,257.6 129.2,257.6 129.2,226.8 140.6,226.8 140.6,218.4 &#9;"/>
    <polygon points="218.6,257.6 218.6,218.4 208.9,218.4 208.9,241.9 191.5,218.4 181.6,218.4 181.6,257.6 191.5,257.6 191.5,234.3 &#10;&#9;&#9;208.9,257.6 &#9;"/>
    <polygon points="145.5,257.6 155.9,257.6 174.5,257.6 174.5,249.2 155.9,249.2 155.9,241.4 171.7,241.4 171.7,233.1 155.9,233.1 &#10;&#9;&#9;155.9,226.8 174.5,226.8 174.5,218.4 145.5,218.4 &#9;"/>
    <polygon points="226.5,257.6 236.7,257.6 236.7,241.6 253.2,241.6 253.2,233.3 236.7,233.3 236.7,226.8 256.4,226.8 256.4,218.4 &#10;&#9;&#9;226.5,218.4 &#9;"/>
    <polygon points="32.3,218.4 21.2,245.9 21.1,245.9 10,218.4 0,218.4 16.1,257.6 26.2,257.6 42.2,218.4 &#9;"/>
    <polygon points="331.6,257.6 360,257.6 360,248.8 341.9,248.8 341.9,218.4 331.6,218.4 &#9;"/>
    <polygon points="298.9,257.6 327.2,257.6 327.2,248.8 309.1,248.8 309.1,218.4 298.9,218.4 &#9;"/>
    <path d="M285.7,257.6h9.9l-16.3-39.2h-0.1h-9.8h-0.1L253,257.6h9.9l2.8-7h17.2L285.7,257.6z M268.8,242.5l5.4-13.4h0.1l5.4,13.4 H268.8z"/>
    <path d="M68.4,257.6h9.9L62,218.4h-0.1h-9.8H52l-16.3,39.2h9.9l2.8-7h17.2L68.4,257.6z M51.7,242.5l5.4-13.4h0.1l5.4,13.4H51.7z"/>
  </g>
</svg>